<?xml version="1.0" encoding="utf-8"?>
<!-- Generator: Adobe Illustrator 21.0.0, SVG Export Plug-In . SVG Version: 6.00 Build 0)  -->
<svg version="1.1" xmlns="http://www.w3.org/2000/svg" xmlns:xlink="http://www.w3.org/1999/xlink" x="0px" y="0px" width="24px"
	 height="24px" viewBox="0 0 24 24" style="enable-background:new 0 0 24 24;" xml:space="preserve">
<style type="text/css">
	.st0{fill:none;}
	.st1{fill:#2F6DEA;}
	.st2{fill:#5EA0EF;}
	.st3{fill:#97CBFF;}
	.st4{opacity:0.72;fill:url(#SVGID_1_);}
</style>
<g id="base">
	<rect x="0" y="0" class="st0" width="24" height="24"/>
	<g>
		<polygon class="st1" points="13.3,20.8 18.6,23.9 24,20.8 24,14.6 18.6,11.5 13.3,14.6 		"/>
		<polygon class="st1" points="0,20.8 5.4,23.9 10.7,20.8 10.7,14.6 5.4,11.5 0,14.6 		"/>
		<polygon class="st2" points="5.4,11.5 5.4,17.7 0,20.8 0,14.6 		"/>
		<polygon class="st3" points="5.4,17.7 10.7,20.8 10.7,14.6 5.4,11.5 		"/>
		<polygon class="st2" points="18.6,11.5 18.6,17.7 24,20.8 24,14.6 		"/>
		<polygon class="st3" points="13.3,14.6 18.6,11.5 18.6,17.7 13.3,20.8 		"/>
		<linearGradient id="SVGID_1_" gradientUnits="userSpaceOnUse" x1="6.6429" y1="4.7626" x2="17.3571" y2="4.7626">
			<stop  offset="0" style="stop-color:#CCC5FD"/>
			<stop  offset="0.8261" style="stop-color:#9387F0"/>
		</linearGradient>
		<polygon class="st4" points="6.6,9.4 12,6.3 17.4,9.4 17.4,3.2 12,0.1 6.6,3.2 		"/>
		<polygon class="st3" points="6.6,9.4 12,12.5 17.4,9.4 17.4,3.2 12,0.1 6.6,3.2 		"/>
		<polygon class="st2" points="12,0.1 12,6.3 6.6,9.4 6.6,3.2 		"/>
		<polygon class="st1" points="12,6.3 17.4,9.4 17.4,3.2 12,0.1 		"/>
	</g>
</g>
<g id="icon">
</g>
</svg>
