<svg xmlns="http://www.w3.org/2000/svg" viewBox="0 0 22 20.624">
  <defs>
    <style>
      .cls-1 {
        fill: none;
      }
    </style>
  </defs>
  <g id="Group_19931" data-name="Group 19931" transform="translate(0 -0.001)">
    <path id="Path_9966" data-name="Path 9966" class="cls-1" d="M14.281,14A3.857,3.857,0,0,0,10.5,17.438h7.494A3.741,3.741,0,0,0,14.281,14Z" transform="translate(-3.281 -4.375)"/>
    <g id="Group_19930" data-name="Group 19930" transform="translate(0 0.001)">
      <path id="Path_9967" data-name="Path 9967" d="M24.494,6.738a3.74,3.74,0,0,0,.619-5.294A3.769,3.769,0,1,0,19.2,6.119a5.25,5.25,0,0,0,.619.619A5.342,5.342,0,0,0,17,11h1.375a3.8,3.8,0,0,1,7.563,0h1.375A5.192,5.192,0,0,0,24.494,6.738ZM19.75,3.781a2.406,2.406,0,0,1,4.813,0,2.406,2.406,0,0,1-4.812,0Z" transform="translate(-5.313 -0.001)"/>
      <path id="Path_9968" data-name="Path 9968" d="M7.494,6.738a3.74,3.74,0,0,0,.619-5.294A3.769,3.769,0,1,0,2.2,6.119a5.25,5.25,0,0,0,.619.619A5.192,5.192,0,0,0,0,11H1.375a3.766,3.766,0,0,1,7.494,0h1.375A5.12,5.12,0,0,0,7.494,6.738ZM2.75,3.781a2.406,2.406,0,0,1,4.813,0A2.436,2.436,0,0,1,5.156,6.188,2.436,2.436,0,0,1,2.75,3.781Z" transform="translate(0 -0.001)"/>
    </g>
    <path id="Path_9969" data-name="Path 9969" d="M15.994,20.738a3.769,3.769,0,1,0-5.294-.619,5.25,5.25,0,0,0,.619.619A5.192,5.192,0,0,0,8.5,25H9.875A3.879,3.879,0,0,1,14,21.563,3.876,3.876,0,0,1,17.438,25h1.375A5.192,5.192,0,0,0,15.994,20.738ZM11.25,17.781a2.406,2.406,0,1,1,2.406,2.406A2.436,2.436,0,0,1,11.25,17.781Z" transform="translate(-2.656 -4.375)"/>
  </g>
</svg>
