<svg xmlns="http://www.w3.org/2000/svg" viewBox="0 0 34 34">
  <defs>
    <style>
      .cls-1 {
        fill: #eaeaea;
      }

      .cls-2 {
        fill: #e46725;
        stroke: #fff;
        stroke-width: 2px;
      }

      .cls-3 {
        fill: #333;
      }

      .cls-4 {
        fill: #fff;
      }

      .cls-5 {
        stroke: none;
      }

      .cls-6 {
        fill: none;
      }
    </style>
  </defs>
  <g id="Group_19975" data-name="Group 19975" transform="translate(-62 -102)">
    <g id="Group_19970" data-name="Group 19970" transform="translate(-38 -242)">
      <circle id="Base_Avatar_" data-name="Base (Avatar)" class="cls-1" cx="16" cy="16" r="16" transform="translate(100 344)"/>
      <g id="Presence" class="cls-2" transform="translate(124 368)">
        <circle class="cls-5" cx="4" cy="4" r="4"/>
        <circle class="cls-6" cx="4" cy="4" r="5"/>
      </g>
    </g>
    <path id="Path_8998" data-name="Path 8998" class="cls-3" d="M0,15.909H1.273a5.727,5.727,0,1,1,11.455,0H14A7.045,7.045,0,0,0,9.673,9.418a5.024,5.024,0,0,0,2.418-4.327,5.091,5.091,0,0,0-10.182,0A5.024,5.024,0,0,0,4.327,9.418,7.045,7.045,0,0,0,0,15.909ZM3.182,5.091A3.818,3.818,0,1,1,7,8.909,3.829,3.829,0,0,1,3.182,5.091Z" transform="translate(71 109)"/>
    <path id="EA84_1_" data-name="EA84 (1)" class="cls-4" d="M16.474-8.986h1v3h-1v-3m0,5v-1h1v1Z" transform="translate(73.156 136.286)"/>
  </g>
</svg>
