<svg xmlns="http://www.w3.org/2000/svg" xmlns:xlink="http://www.w3.org/1999/xlink" viewBox="0 0 272.69 287.069">
  <defs>
    <style>
      .cls-1, .cls-38, .cls-65, .cls-73, .cls-76, .cls-79, .cls-9 {
        fill: none;
      }

      .cls-2 {
        fill: #90d9f8;
      }

      .cls-3 {
        fill: #21bbee;
      }

      .cls-4 {
        fill: #065490;
      }

      .cls-5 {
        fill: #2770b8;
      }

      .cls-6 {
        fill: #fff;
      }

      .cls-7 {
        fill: #ffca4f;
      }

      .cls-8 {
        fill: #edac28;
      }

      .cls-65, .cls-76, .cls-79, .cls-9 {
        stroke: #fff;
        stroke-linejoin: round;
      }

      .cls-38, .cls-65, .cls-76, .cls-79, .cls-9 {
        stroke-linecap: round;
      }

      .cls-9 {
        stroke-width: 0.88px;
        stroke-dasharray: 0 1.75;
      }

      .cls-10 {
        clip-path: url(#clip-path);
      }

      .cls-11 {
        fill: #e6e6e6;
      }

      .cls-12 {
        fill: #e5a724;
      }

      .cls-13 {
        fill: #ffcc40;
      }

      .cls-14 {
        fill: #b8977c;
      }

      .cls-15 {
        clip-path: url(#clip-path-2);
      }

      .cls-16 {
        fill: #d8b094;
      }

      .cls-17 {
        clip-path: url(#clip-path-3);
      }

      .cls-18 {
        fill: #ab845f;
      }

      .cls-19 {
        fill: #282828;
      }

      .cls-20 {
        fill: #ef4d5a;
      }

      .cls-21 {
        fill: #a71e22;
      }

      .cls-22 {
        clip-path: url(#clip-path-4);
      }

      .cls-23 {
        fill: #660d0d;
      }

      .cls-24 {
        fill: #d63f26;
      }

      .cls-25 {
        fill: #939393;
      }

      .cls-26 {
        fill: #737474;
      }

      .cls-27 {
        fill: #d2d2d2;
      }

      .cls-28 {
        fill: #1166b1;
      }

      .cls-29 {
        fill: #10497e;
      }

      .cls-30 {
        fill: #cd9b5e;
      }

      .cls-31 {
        fill: #b98c57;
      }

      .cls-32 {
        fill: #010101;
      }

      .cls-33 {
        fill: #3076bc;
      }

      .cls-34 {
        fill: #72594c;
      }

      .cls-35 {
        clip-path: url(#clip-path-7);
      }

      .cls-36 {
        fill: #675042;
      }

      .cls-37 {
        clip-path: url(#clip-path-8);
      }

      .cls-38 {
        stroke: #010101;
        stroke-width: 0.32px;
      }

      .cls-38, .cls-73 {
        stroke-miterlimit: 10;
      }

      .cls-39 {
        fill: #8e7a6f;
      }

      .cls-40 {
        fill: #38a148;
      }

      .cls-41 {
        fill: #5a412d;
      }

      .cls-42 {
        fill: #bb9166;
      }

      .cls-43 {
        fill: #8e562e;
      }

      .cls-44 {
        fill: #704422;
      }

      .cls-45 {
        fill: #454545;
      }

      .cls-46 {
        fill: #c3a88c;
      }

      .cls-47 {
        fill: #5f3a20;
      }

      .cls-48 {
        fill: #b2b7c2;
      }

      .cls-49 {
        fill: #bb982e;
      }

      .cls-50 {
        fill: #92724e;
      }

      .cls-51 {
        fill: #be9e7b;
      }

      .cls-52 {
        fill: #785945;
      }

      .cls-53 {
        fill: #a88358;
      }

      .cls-54 {
        fill: #d1b49b;
      }

      .cls-55 {
        fill: #a8abb6;
      }

      .cls-56 {
        fill: #d7d9e0;
      }

      .cls-57 {
        fill: #333;
      }

      .cls-58 {
        fill: #c2c2c1;
      }

      .cls-59 {
        fill: #832065;
      }

      .cls-60 {
        fill: #5a1d5c;
      }

      .cls-61 {
        fill: #a67a50;
      }

      .cls-62 {
        clip-path: url(#clip-path-11);
      }

      .cls-63 {
        fill: #091529;
      }

      .cls-64 {
        fill: #bc3926;
      }

      .cls-65 {
        stroke-width: 0.44px;
      }

      .cls-66 {
        fill: #ccad7e;
      }

      .cls-67 {
        fill: #a88a75;
      }

      .cls-68 {
        fill: #232323;
      }

      .cls-69 {
        fill: #c68e2b;
      }

      .cls-70 {
        fill: #c94827;
      }

      .cls-71 {
        fill: #b14125;
      }

      .cls-72 {
        fill: #fcb31d;
      }

      .cls-73 {
        stroke: #fcb31d;
        stroke-width: 0.5px;
      }

      .cls-74 {
        fill: #bbddea;
      }

      .cls-75 {
        fill: #8fb3bf;
      }

      .cls-76 {
        stroke-width: 1.84px;
        stroke-dasharray: 0 3.68;
      }

      .cls-77 {
        clip-path: url(#clip-path-14);
      }

      .cls-78 {
        clip-path: url(#clip-path-15);
      }

      .cls-79 {
        stroke-width: 0.92px;
      }
    </style>
    <clipPath id="clip-path">
      <circle id="Ellipse_2548" data-name="Ellipse 2548" class="cls-1" cx="6.496" cy="6.496" r="6.496"/>
    </clipPath>
    <clipPath id="clip-path-2">
      <path id="Path_9791" data-name="Path 9791" class="cls-1" d="M288.8,344.154v-.884h-2.54v.884a1.049,1.049,0,0,1-1.056,1.056h-.393v2.6h5.481v-2.6h-.435a1.049,1.049,0,0,1-1.056-1.056Z" transform="translate(-284.81 -343.27)"/>
    </clipPath>
    <clipPath id="clip-path-3">
      <rect id="Rectangle_16295" data-name="Rectangle 16295" class="cls-1" width="5.716" height="7.331" rx="2.858"/>
    </clipPath>
    <clipPath id="clip-path-4">
      <path id="Path_9808" data-name="Path 9808" class="cls-1" d="M283.243,346.08h0a1.774,1.774,0,0,0,1.381,1.733l1.381.29,1.381-.29a1.774,1.774,0,0,0,1.381-1.733h0a2.168,2.168,0,0,1,2,1.381L291.831,351H279.75l1.477-3.521a2.147,2.147,0,0,1,2.009-1.381Z" transform="translate(-279.75 -346.08)"/>
    </clipPath>
    <clipPath id="clip-path-7">
      <path id="Path_9831" data-name="Path 9831" class="cls-1" d="M355.188,361.62l-.1,1.125a1.27,1.27,0,0,1-1.084,1.132l-.456.062a1.85,1.85,0,0,0-1.6,1.836h0l6.531,1.035,2.25-1.926v-.5a.766.766,0,0,0-.787-.759h0a1.249,1.249,0,0,1-1.312-1.256v-.566Z" transform="translate(-351.95 -361.62)"/>
    </clipPath>
    <clipPath id="clip-path-8">
      <rect id="Rectangle_16300" data-name="Rectangle 16300" class="cls-1" width="5.944" height="7.47" rx="2.972" transform="matrix(0.993, 0.122, -0.122, 0.993, 0.909, 0)"/>
    </clipPath>
    <clipPath id="clip-path-11">
      <path id="Path_9887" data-name="Path 9887" class="cls-1" d="M289.587,382.415h0a2.941,2.941,0,0,1-2.927-2.934v-1.346c0-1.553,1.263-2.382,2.81-2.375h1.381a1.664,1.664,0,0,1,1.664,1.671V379.5a2.941,2.941,0,0,1-2.927,2.913Z" transform="translate(-286.66 -375.76)"/>
    </clipPath>
    <clipPath id="clip-path-14">
      <circle id="Ellipse_2579" data-name="Ellipse 2579" class="cls-1" cx="13.627" cy="13.627" r="13.627"/>
    </clipPath>
    <clipPath id="clip-path-15">
      <path id="Path_9944" data-name="Path 9944" class="cls-1" d="M485.37,442.659h0a6.137,6.137,0,0,1-6.13-6.158v-2.817c0-3.251,2.644-4.991,5.9-4.984h2.913a3.452,3.452,0,0,1,3.452,3.493V436.5a6.151,6.151,0,0,1-6.13,6.158Z" transform="translate(-479.24 -428.7)"/>
    </clipPath>
  </defs>
  <g id="Validator_day_zero_illustration_POA" data-name="Validator day zero illustration_POA" transform="translate(0.422)">
    <path id="Path_9736" data-name="Path 9736" class="cls-2" d="M508.515,450.141a10.1,10.1,0,0,0-5.474,1.608c0-.373.034-.746.034-1.118a19.861,19.861,0,0,0-33.6-14.332,25.688,25.688,0,0,0-49.919,8.284,15.388,15.388,0,1,0-11.184,25.95H508.515a10.183,10.183,0,1,0,0-20.358" transform="translate(-246.695 -183.468)"/>
    <path id="Path_9737" data-name="Path 9737" class="cls-2" d="M193.082,380.317a12.274,12.274,0,0,1,8.823,3.728c-.041-.566-.069-1.139-.069-1.719a22.623,22.623,0,0,1,42.2-11.342v-.131a34.1,34.1,0,1,1,67.509,6.9,18.322,18.322,0,1,1,16.023,27.213H193.082a12.323,12.323,0,1,1,0-24.638" transform="translate(-180.89 -157.971)"/>
    <path id="Path_9738" data-name="Path 9738" class="cls-3" d="M273.586,118.939a2.9,2.9,0,0,0-1.381.359,10.783,10.783,0,1,0-20.165-5.316,7.383,7.383,0,0,0,.048,1.036,4.977,4.977,0,0,0-1.823-.345,5.046,5.046,0,1,0,0,10.093h23.341a2.913,2.913,0,0,0,0-5.827" transform="translate(-200.941 -85.637)"/>
    <path id="Path_9739" data-name="Path 9739" class="cls-3" d="M444.112,188.954a8.636,8.636,0,0,0-6.213,2.623c0-.4.048-.8.048-1.208a15.878,15.878,0,0,0-27.372-11.046V165.365H401.27l-.456-.456V113.478H371.336v18.895H355.617V92.154H332.145v30.092h-6.137V77.76l-18.632,18.6v62.856H271.029V139.422H257.788v33.2h-4.9V160.146H242.221V172.62H233v12.426a8.181,8.181,0,1,0-2.727,15.878h33.054a5.992,5.992,0,0,0,2.133-11.6H337.3A12.868,12.868,0,0,0,349.521,206.3H444.1a8.671,8.671,0,1,0,0-17.335m-183.342.545v-.179h.442l-.442.179" transform="translate(-193.765 -77.76)"/>
    <rect id="Rectangle_16219" data-name="Rectangle 16219" class="cls-4" width="44.548" height="92.748" transform="translate(88.71 39.149)"/>
    <rect id="Rectangle_16220" data-name="Rectangle 16220" class="cls-5" width="12.958" height="92.748" transform="translate(133.258 39.149)"/>
    <rect id="Rectangle_16221" data-name="Rectangle 16221" class="cls-5" width="36.008" height="10.21" transform="translate(93.011 43.899)"/>
    <rect id="Rectangle_16222" data-name="Rectangle 16222" class="cls-4" width="1.678" height="7.166" transform="translate(94.695 45.418)"/>
    <rect id="Rectangle_16223" data-name="Rectangle 16223" class="cls-4" width="1.678" height="7.166" transform="translate(97.38 45.418)"/>
    <rect id="Rectangle_16224" data-name="Rectangle 16224" class="cls-4" width="1.678" height="7.166" transform="translate(100.066 45.418)"/>
    <rect id="Rectangle_16225" data-name="Rectangle 16225" class="cls-4" width="1.678" height="7.166" transform="translate(102.751 45.418)"/>
    <path id="Path_9740" data-name="Path 9740" class="cls-6" d="M358.7,148.228a1.077,1.077,0,1,1-.51-1,1.077,1.077,0,0,1,.51,1" transform="translate(-235.413 -99.221)"/>
    <path id="Path_9741" data-name="Path 9741" class="cls-7" d="M364.035,148.228a1.077,1.077,0,1,1-.51-1,1.077,1.077,0,0,1,.51,1" transform="translate(-237.067 -99.221)"/>
    <rect id="Rectangle_16226" data-name="Rectangle 16226" class="cls-5" width="36.008" height="10.21" transform="translate(93.011 55.718)"/>
    <rect id="Rectangle_16227" data-name="Rectangle 16227" class="cls-4" width="1.678" height="7.166" transform="translate(94.695 57.243)"/>
    <rect id="Rectangle_16228" data-name="Rectangle 16228" class="cls-4" width="1.678" height="7.166" transform="translate(97.38 57.243)"/>
    <rect id="Rectangle_16229" data-name="Rectangle 16229" class="cls-4" width="1.678" height="7.166" transform="translate(100.066 57.243)"/>
    <rect id="Rectangle_16230" data-name="Rectangle 16230" class="cls-4" width="1.678" height="7.166" transform="translate(102.751 57.243)"/>
    <path id="Path_9742" data-name="Path 9742" class="cls-6" d="M358.694,165.39a1.077,1.077,0,1,1-1.07-1.07,1.077,1.077,0,0,1,1.07,1.07" transform="translate(-235.412 -104.564)"/>
    <path id="Path_9743" data-name="Path 9743" class="cls-7" d="M364.034,165.39a1.077,1.077,0,1,1-1.07-1.07,1.077,1.077,0,0,1,1.07,1.07" transform="translate(-237.065 -104.564)"/>
    <rect id="Rectangle_16231" data-name="Rectangle 16231" class="cls-5" width="36.008" height="10.21" transform="translate(93.011 67.543)"/>
    <rect id="Rectangle_16232" data-name="Rectangle 16232" class="cls-4" width="1.678" height="7.166" transform="translate(94.695 69.069)"/>
    <rect id="Rectangle_16233" data-name="Rectangle 16233" class="cls-4" width="1.678" height="7.166" transform="translate(97.38 69.069)"/>
    <rect id="Rectangle_16234" data-name="Rectangle 16234" class="cls-4" width="1.678" height="7.166" transform="translate(100.066 69.069)"/>
    <rect id="Rectangle_16235" data-name="Rectangle 16235" class="cls-4" width="1.678" height="7.166" transform="translate(102.751 69.069)"/>
    <path id="Path_9744" data-name="Path 9744" class="cls-6" d="M358.694,182.517a1.07,1.07,0,1,1-.311-.761,1.077,1.077,0,0,1,.311.761" transform="translate(-235.412 -109.865)"/>
    <path id="Path_9745" data-name="Path 9745" class="cls-7" d="M364.034,182.517a1.07,1.07,0,1,1-.311-.761,1.077,1.077,0,0,1,.311.761" transform="translate(-237.065 -109.865)"/>
    <rect id="Rectangle_16236" data-name="Rectangle 16236" class="cls-5" width="36.008" height="10.21" transform="translate(93.011 79.369)"/>
    <rect id="Rectangle_16237" data-name="Rectangle 16237" class="cls-4" width="1.678" height="7.166" transform="translate(94.695 80.888)"/>
    <rect id="Rectangle_16238" data-name="Rectangle 16238" class="cls-4" width="1.678" height="7.166" transform="translate(97.38 80.888)"/>
    <rect id="Rectangle_16239" data-name="Rectangle 16239" class="cls-4" width="1.678" height="7.166" transform="translate(100.066 80.888)"/>
    <rect id="Rectangle_16240" data-name="Rectangle 16240" class="cls-4" width="1.678" height="7.166" transform="translate(102.751 80.888)"/>
    <rect id="Rectangle_16241" data-name="Rectangle 16241" class="cls-5" width="36.008" height="10.21" transform="translate(93.011 91.188)"/>
    <rect id="Rectangle_16242" data-name="Rectangle 16242" class="cls-4" width="1.678" height="7.166" transform="translate(94.695 92.713)"/>
    <rect id="Rectangle_16243" data-name="Rectangle 16243" class="cls-4" width="1.678" height="7.166" transform="translate(97.38 92.713)"/>
    <rect id="Rectangle_16244" data-name="Rectangle 16244" class="cls-4" width="1.678" height="7.166" transform="translate(100.066 92.713)"/>
    <rect id="Rectangle_16245" data-name="Rectangle 16245" class="cls-4" width="1.678" height="7.166" transform="translate(102.751 92.713)"/>
    <path id="Path_9746" data-name="Path 9746" class="cls-6" d="M358.694,216.767a1.07,1.07,0,1,1-.311-.761,1.077,1.077,0,0,1,.311.761" transform="translate(-235.412 -120.471)"/>
    <path id="Path_9747" data-name="Path 9747" class="cls-7" d="M364.034,216.767a1.07,1.07,0,1,1-.311-.761,1.077,1.077,0,0,1,.311.761" transform="translate(-237.065 -120.471)"/>
    <rect id="Rectangle_16246" data-name="Rectangle 16246" class="cls-5" width="36.008" height="10.21" transform="translate(93.011 103.013)"/>
    <rect id="Rectangle_16247" data-name="Rectangle 16247" class="cls-4" width="1.678" height="7.166" transform="translate(94.695 104.539)"/>
    <rect id="Rectangle_16248" data-name="Rectangle 16248" class="cls-4" width="1.678" height="7.166" transform="translate(97.38 104.539)"/>
    <rect id="Rectangle_16249" data-name="Rectangle 16249" class="cls-4" width="1.678" height="7.166" transform="translate(100.066 104.539)"/>
    <rect id="Rectangle_16250" data-name="Rectangle 16250" class="cls-4" width="1.678" height="7.166" transform="translate(102.751 104.539)"/>
    <path id="Path_9748" data-name="Path 9748" class="cls-6" d="M358.694,233.9a1.07,1.07,0,1,1-.311-.761,1.077,1.077,0,0,1,.311.761" transform="translate(-235.412 -125.775)"/>
    <path id="Path_9749" data-name="Path 9749" class="cls-7" d="M364.034,233.9a1.07,1.07,0,1,1-.311-.761,1.077,1.077,0,0,1,.311.761" transform="translate(-237.065 -125.775)"/>
    <rect id="Rectangle_16251" data-name="Rectangle 16251" class="cls-5" width="36.008" height="10.21" transform="translate(93.011 114.839)"/>
    <rect id="Rectangle_16252" data-name="Rectangle 16252" class="cls-4" width="1.678" height="7.166" transform="translate(94.695 116.358)"/>
    <rect id="Rectangle_16253" data-name="Rectangle 16253" class="cls-4" width="1.678" height="7.166" transform="translate(97.38 116.358)"/>
    <rect id="Rectangle_16254" data-name="Rectangle 16254" class="cls-4" width="1.678" height="7.166" transform="translate(100.066 116.358)"/>
    <rect id="Rectangle_16255" data-name="Rectangle 16255" class="cls-4" width="1.678" height="7.166" transform="translate(102.751 116.358)"/>
    <path id="Path_9750" data-name="Path 9750" class="cls-6" d="M358.694,251.027a1.07,1.07,0,1,1-.311-.761,1.077,1.077,0,0,1,.311.761" transform="translate(-235.412 -131.08)"/>
    <path id="Path_9751" data-name="Path 9751" class="cls-7" d="M364.034,251.027a1.07,1.07,0,1,1-.311-.761,1.077,1.077,0,0,1,.311.761" transform="translate(-237.065 -131.08)"/>
    <rect id="Rectangle_16256" data-name="Rectangle 16256" class="cls-4" width="44.548" height="92.748" transform="translate(138.56 56.208)"/>
    <rect id="Rectangle_16257" data-name="Rectangle 16257" class="cls-5" width="12.958" height="92.748" transform="translate(183.107 56.208)"/>
    <rect id="Rectangle_16258" data-name="Rectangle 16258" class="cls-5" width="36.008" height="10.21" transform="translate(142.853 60.957)"/>
    <rect id="Rectangle_16259" data-name="Rectangle 16259" class="cls-4" width="1.678" height="7.166" transform="translate(144.538 62.483)"/>
    <rect id="Rectangle_16260" data-name="Rectangle 16260" class="cls-4" width="1.678" height="7.166" transform="translate(147.23 62.483)"/>
    <rect id="Rectangle_16261" data-name="Rectangle 16261" class="cls-4" width="1.678" height="7.166" transform="translate(149.916 62.483)"/>
    <rect id="Rectangle_16262" data-name="Rectangle 16262" class="cls-4" width="1.678" height="7.166" transform="translate(152.601 62.483)"/>
    <path id="Path_9752" data-name="Path 9752" class="cls-6" d="M430.9,172.977a1.077,1.077,0,1,1-1.077-1.077,1.077,1.077,0,0,1,1.077,1.077" transform="translate(-257.772 -106.911)"/>
    <path id="Path_9753" data-name="Path 9753" class="cls-7" d="M436.224,172.977a1.077,1.077,0,1,1-1.077-1.077,1.077,1.077,0,0,1,1.077,1.077" transform="translate(-259.419 -106.911)"/>
    <rect id="Rectangle_16263" data-name="Rectangle 16263" class="cls-5" width="36.008" height="10.21" transform="translate(142.853 72.783)"/>
    <rect id="Rectangle_16264" data-name="Rectangle 16264" class="cls-4" width="1.678" height="7.166" transform="translate(144.538 74.302)"/>
    <rect id="Rectangle_16265" data-name="Rectangle 16265" class="cls-4" width="1.678" height="7.166" transform="translate(147.23 74.302)"/>
    <rect id="Rectangle_16266" data-name="Rectangle 16266" class="cls-4" width="1.678" height="7.166" transform="translate(149.916 74.302)"/>
    <rect id="Rectangle_16267" data-name="Rectangle 16267" class="cls-4" width="1.678" height="7.166" transform="translate(152.601 74.302)"/>
    <path id="Path_9754" data-name="Path 9754" class="cls-6" d="M430.9,190.107a1.07,1.07,0,1,1-.313-.764,1.077,1.077,0,0,1,.313.764" transform="translate(-257.772 -112.215)"/>
    <path id="Path_9755" data-name="Path 9755" class="cls-7" d="M436.224,190.107a1.07,1.07,0,1,1-.313-.764,1.077,1.077,0,0,1,.313.764" transform="translate(-259.419 -112.215)"/>
    <rect id="Rectangle_16268" data-name="Rectangle 16268" class="cls-5" width="36.008" height="10.21" transform="translate(142.853 84.602)"/>
    <rect id="Rectangle_16269" data-name="Rectangle 16269" class="cls-4" width="1.678" height="7.166" transform="translate(144.538 86.127)"/>
    <rect id="Rectangle_16270" data-name="Rectangle 16270" class="cls-4" width="1.678" height="7.166" transform="translate(147.23 86.127)"/>
    <rect id="Rectangle_16271" data-name="Rectangle 16271" class="cls-4" width="1.678" height="7.166" transform="translate(149.916 86.127)"/>
    <rect id="Rectangle_16272" data-name="Rectangle 16272" class="cls-4" width="1.678" height="7.166" transform="translate(152.601 86.127)"/>
    <path id="Path_9756" data-name="Path 9756" class="cls-6" d="M430.905,207.266a1.077,1.077,0,1,1-1.073-.991,1.077,1.077,0,0,1,1.073.991" transform="translate(-257.773 -117.555)"/>
    <path id="Path_9757" data-name="Path 9757" class="cls-7" d="M436.225,207.266a1.077,1.077,0,1,1-1.073-.99,1.077,1.077,0,0,1,1.073.99" transform="translate(-259.421 -117.555)"/>
    <rect id="Rectangle_16273" data-name="Rectangle 16273" class="cls-5" width="36.008" height="10.21" transform="translate(142.853 96.427)"/>
    <rect id="Rectangle_16274" data-name="Rectangle 16274" class="cls-4" width="1.678" height="7.166" transform="translate(144.538 97.953)"/>
    <rect id="Rectangle_16275" data-name="Rectangle 16275" class="cls-4" width="1.678" height="7.166" transform="translate(147.23 97.953)"/>
    <rect id="Rectangle_16276" data-name="Rectangle 16276" class="cls-4" width="1.678" height="7.166" transform="translate(149.916 97.953)"/>
    <rect id="Rectangle_16277" data-name="Rectangle 16277" class="cls-4" width="1.678" height="7.166" transform="translate(152.601 97.953)"/>
    <path id="Path_9758" data-name="Path 9758" class="cls-6" d="M430.9,224.357a1.077,1.077,0,1,1-1.077-1.077,1.077,1.077,0,0,1,1.077,1.077" transform="translate(-257.772 -122.821)"/>
    <path id="Path_9759" data-name="Path 9759" class="cls-7" d="M436.224,224.357a1.077,1.077,0,1,1-1.077-1.077,1.077,1.077,0,0,1,1.077,1.077" transform="translate(-259.419 -122.821)"/>
    <rect id="Rectangle_16278" data-name="Rectangle 16278" class="cls-5" width="36.008" height="10.21" transform="translate(142.853 108.253)"/>
    <rect id="Rectangle_16279" data-name="Rectangle 16279" class="cls-4" width="1.678" height="7.166" transform="translate(144.538 109.772)"/>
    <rect id="Rectangle_16280" data-name="Rectangle 16280" class="cls-4" width="1.678" height="7.166" transform="translate(147.23 109.772)"/>
    <rect id="Rectangle_16281" data-name="Rectangle 16281" class="cls-4" width="1.678" height="7.166" transform="translate(149.916 109.772)"/>
    <rect id="Rectangle_16282" data-name="Rectangle 16282" class="cls-4" width="1.678" height="7.166" transform="translate(152.601 109.772)"/>
    <path id="Path_9760" data-name="Path 9760" class="cls-6" d="M430.9,241.517a1.07,1.07,0,1,1-.313-.764,1.077,1.077,0,0,1,.313.764" transform="translate(-257.772 -128.135)"/>
    <path id="Path_9761" data-name="Path 9761" class="cls-7" d="M436.224,241.517a1.07,1.07,0,1,1-.313-.764,1.077,1.077,0,0,1,.313.764" transform="translate(-259.419 -128.135)"/>
    <rect id="Rectangle_16283" data-name="Rectangle 16283" class="cls-5" width="36.008" height="10.21" transform="translate(142.853 120.072)"/>
    <rect id="Rectangle_16284" data-name="Rectangle 16284" class="cls-4" width="1.678" height="7.166" transform="translate(144.538 121.597)"/>
    <rect id="Rectangle_16285" data-name="Rectangle 16285" class="cls-4" width="1.678" height="7.166" transform="translate(147.23 121.597)"/>
    <rect id="Rectangle_16286" data-name="Rectangle 16286" class="cls-4" width="1.678" height="7.166" transform="translate(149.916 121.597)"/>
    <rect id="Rectangle_16287" data-name="Rectangle 16287" class="cls-4" width="1.678" height="7.166" transform="translate(152.601 121.597)"/>
    <path id="Path_9762" data-name="Path 9762" class="cls-6" d="M430.9,258.607a1.077,1.077,0,1,1-1.077-1.077,1.077,1.077,0,0,1,1.077,1.077" transform="translate(-257.772 -133.427)"/>
    <path id="Path_9763" data-name="Path 9763" class="cls-7" d="M436.224,258.607a1.077,1.077,0,1,1-1.077-1.077,1.077,1.077,0,0,1,1.077,1.077" transform="translate(-259.419 -133.427)"/>
    <rect id="Rectangle_16288" data-name="Rectangle 16288" class="cls-5" width="36.008" height="10.21" transform="translate(142.853 131.897)"/>
    <rect id="Rectangle_16289" data-name="Rectangle 16289" class="cls-4" width="1.678" height="7.166" transform="translate(144.538 133.416)"/>
    <rect id="Rectangle_16290" data-name="Rectangle 16290" class="cls-4" width="1.678" height="7.166" transform="translate(147.23 133.416)"/>
    <rect id="Rectangle_16291" data-name="Rectangle 16291" class="cls-4" width="1.678" height="7.166" transform="translate(149.916 133.416)"/>
    <rect id="Rectangle_16292" data-name="Rectangle 16292" class="cls-4" width="1.678" height="7.166" transform="translate(152.601 133.416)"/>
    <path id="Path_9764" data-name="Path 9764" class="cls-6" d="M430.9,275.737a1.07,1.07,0,1,1-.313-.763,1.077,1.077,0,0,1,.313.763" transform="translate(-257.772 -138.731)"/>
    <path id="Path_9765" data-name="Path 9765" class="cls-7" d="M436.224,275.737a1.07,1.07,0,1,1-.313-.764,1.077,1.077,0,0,1,.313.764" transform="translate(-259.419 -138.731)"/>
    <path id="Path_9766" data-name="Path 9766" class="cls-2" d="M406.28,254.265a10.542,10.542,0,0,0-4.522,1.022v-1.022a21.214,21.214,0,0,0-42.346-1.892,14.5,14.5,0,0,0-17.362-4.639,7.78,7.78,0,0,0-10.832.311c0-.359.048-.69.048-1.084a14.3,14.3,0,0,0-26.682-7.173v-.083a21.559,21.559,0,1,0-42.677,4.356,11.584,11.584,0,1,0-10.114,17.2h81.55a14.5,14.5,0,0,0,14.5,14.228h58.465a10.611,10.611,0,0,0,0-21.221" transform="translate(-199.383 -121.236)"/>
    <path id="Path_9767" data-name="Path 9767" class="cls-5" d="M246.24,322.15v55.538h32.805a39.757,39.757,0,0,1,49.2,0H338.6V322.15Z" transform="translate(-201.257 -153.437)"/>
    <path id="Path_9768" data-name="Path 9768" class="cls-5" d="M151.7,244.39l32.75,32.75V244.39Z" transform="translate(-47.105 -75.677)"/>
    <path id="Path_9769" data-name="Path 9769" class="cls-8" d="M306.393,370.64a39.6,39.6,0,0,1,19.744,5.233h9.113V326.92H255.1v48.952h31.556a39.6,39.6,0,0,1,19.737-5.233" transform="translate(-204 -154.914)"/>
    <path id="Path_9770" data-name="Path 9770" class="cls-4" d="M365,402.6a40.522,40.522,0,0,1,5.405,5.143h14.849a3.452,3.452,0,0,0,3.452-3.452V402.6Z" transform="translate(-238.031 -178.348)"/>
    <path id="Path_9771" data-name="Path 9771" class="cls-4" d="M273.05,402.6H226.88v1.691a3.452,3.452,0,0,0,3.452,3.452H267.61a40.16,40.16,0,0,1,5.412-5.143" transform="translate(-195.262 -178.348)"/>
    <path id="Path_9772" data-name="Path 9772" class="cls-5" d="M444.37,412.72v36.588h4.1a24.77,24.77,0,0,1,22.326,0h34.427V412.72Z" transform="translate(-262.609 -181.482)"/>
    <path id="Path_9773" data-name="Path 9773" class="cls-5" d="M320.38,334.96l21.573,21.573V334.96Z" transform="translate(-99.338 -103.722)"/>
    <path id="Path_9774" data-name="Path 9774" class="cls-4" d="M444.522,465.73h-12.9v1.1a2.278,2.278,0,0,0,2.278,2.278h5.578a24.623,24.623,0,0,1,5.06-3.383" transform="translate(-258.661 -197.897)"/>
    <path id="Path_9775" data-name="Path 9775" class="cls-4" d="M482.65,465.73a24.759,24.759,0,0,1,5.053,3.383h35.9a2.278,2.278,0,0,0,2.278-2.278v-1.1Z" transform="translate(-274.462 -197.897)"/>
    <path id="Path_9776" data-name="Path 9776" class="cls-7" d="M470.927,340.289V185.458a13.662,13.662,0,0,0-13.648-13.648h-22.16a1.139,1.139,0,1,0,0,2.278h22.16a11.377,11.377,0,0,1,11.37,11.37v154.83H445.177v32.253h6.337a25.03,25.03,0,0,1,9.789,0h36.671V340.289Z" transform="translate(-259.391 -106.883)"/>
    <path id="Path_9777" data-name="Path 9777" class="cls-8" d="M292.979,289.661a1.132,1.132,0,0,1-1.139-1.132V215.442A16.982,16.982,0,0,1,308.8,198.48h32.446a1.139,1.139,0,0,1,0,2.278H308.8a14.7,14.7,0,0,0-14.684,14.684v73.087a1.132,1.132,0,0,1-1.139,1.132" transform="translate(-215.377 -115.142)"/>
    <line id="Line_465" data-name="Line 465" class="cls-9" x2="6.841" y2="4.446" transform="translate(98.81 199.848)"/>
    <line id="Line_466" data-name="Line 466" class="cls-9" x2="7.953" y2="5.164" transform="translate(110.145 185.53)"/>
    <line id="Line_467" data-name="Line 467" class="cls-9" y1="3.396" x2="3.535" transform="translate(115.606 199.972)"/>
    <line id="Line_468" data-name="Line 468" class="cls-9" x2="7.939" y2="7.366" transform="translate(80.246 185.088)"/>
    <line id="Line_469" data-name="Line 469" class="cls-9" x2="17.065" transform="translate(80.867 181.975)"/>
    <line id="Line_470" data-name="Line 470" class="cls-9" y1="6.02" x2="6.482" transform="translate(81.454 200.207)"/>
    <line id="Line_471" data-name="Line 471" class="cls-9" y1="1.332" x2="22.001" transform="translate(82.428 209.478)"/>
    <line id="Line_472" data-name="Line 472" class="cls-9" x2="6.192" y2="5.205" transform="translate(64.361 200.635)"/>
    <line id="Line_473" data-name="Line 473" class="cls-9" y1="4.715" x2="5.688" transform="translate(63.899 186.607)"/>
    <line id="Line_474" data-name="Line 474" class="cls-9" x2="1.45" y2="14.746" transform="translate(74.371 188.471)"/>
    <path id="Path_9778" data-name="Path 9778" class="cls-9" d="M356.9,327.29" transform="translate(-235.523 -155.028)"/>
    <path id="Path_9779" data-name="Path 9779" class="cls-9" d="M340.64,336.73" transform="translate(-230.488 -157.952)"/>
    <path id="Path_9780" data-name="Path 9780" class="cls-9" d="M371.18,340.5" transform="translate(-239.945 -159.119)"/>
    <path id="Path_9781" data-name="Path 9781" class="cls-9" d="M341.89,341.36" transform="translate(-230.875 -159.385)"/>
    <path id="Path_9782" data-name="Path 9782" class="cls-9" d="M307.66,395.32" transform="translate(-220.276 -176.094)"/>
    <path id="Path_9783" data-name="Path 9783" class="cls-9" d="M296.15,387.84" transform="translate(-216.712 -173.778)"/>
    <path id="Path_9784" data-name="Path 9784" class="cls-9" d="M323,349.27" transform="translate(-225.026 -161.835)"/>
    <path id="Path_9785" data-name="Path 9785" class="cls-9" d="M298.22,349.27" transform="translate(-217.353 -161.835)"/>
    <line id="Line_475" data-name="Line 475" class="cls-9" y1="4.232" x2="4.501" transform="translate(97.249 187.132)"/>
    <line id="Line_476" data-name="Line 476" class="cls-9" x1="3.9" y1="14.332" transform="translate(107.107 187.132)"/>
    <g id="Group_19886" data-name="Group 19886" class="cls-10" transform="translate(67.875 175.479)">
      <rect id="Rectangle_16293" data-name="Rectangle 16293" class="cls-11" width="15.036" height="14.994" transform="translate(-0.987 -0.987)"/>
      <path id="Path_9786" data-name="Path 9786" class="cls-12" d="M291.071,343l.359.366a3.141,3.141,0,0,1,.918,2.216H290.36V343Z" transform="translate(-282.794 -335.372)"/>
      <path id="Path_9787" data-name="Path 9787" class="cls-13" d="M283.786,341.47h0a3,3,0,0,0,0,4.246l.186.186h1.947V341.47Z" transform="translate(-280.486 -334.898)"/>
      <path id="Path_9788" data-name="Path 9788" class="cls-12" d="M284.808,340.06h0a3.024,3.024,0,0,0,0,4.253l.186.186h1.947V340.06Z" transform="translate(-280.804 -334.461)"/>
      <path id="Path_9789" data-name="Path 9789" class="cls-14" d="M288.8,344.154v-.884h-2.54v.884a1.049,1.049,0,0,1-1.056,1.056h-.393v2.6h5.481v-2.6h-.435a1.049,1.049,0,0,1-1.056-1.056Z" transform="translate(-281.075 -335.455)"/>
      <g id="Group_19883" data-name="Group 19883" class="cls-15" transform="translate(3.735 7.815)">
        <path id="Path_9790" data-name="Path 9790" class="cls-16" d="M286.31,344.68l1.215,1.284a1.242,1.242,0,0,1,.352.87h0a.5.5,0,0,1-.255.435h0a.455.455,0,0,1-.366.055l-2.43-.566-.366-1.339Z" transform="translate(-284.702 -343.707)"/>
      </g>
      <path id="Path_9792" data-name="Path 9792" class="cls-16" d="M.663,0h0a.559.559,0,0,1,.559.559V1.726H.856A.856.856,0,0,1,0,.891V.69A.69.69,0,0,1,.663,0Z" transform="translate(2.833 5.35) rotate(0.49)"/>
      <path id="Path_9793" data-name="Path 9793" class="cls-14" d="M.884,0H1.25V1.167a.559.559,0,0,1-.559.559h0A.69.69,0,0,1,0,1.036V.891A.856.856,0,0,1,.884,0Z" transform="translate(9.967 7.077) rotate(179.51)"/>
      <rect id="Rectangle_16294" data-name="Rectangle 16294" class="cls-16" width="5.716" height="7.331" rx="2.858" transform="translate(3.597 1.974)"/>
      <g id="Group_19884" data-name="Group 19884" class="cls-17" transform="translate(3.597 1.974)">
        <path id="Path_9794" data-name="Path 9794" class="cls-18" d="M107.89,262Z" transform="translate(-105.011 -258.583)"/>
        <path id="Path_9795" data-name="Path 9795" class="cls-14" d="M289.1,339.747a.373.373,0,0,0-.255.442,2.657,2.657,0,0,0,.069.366v.186h0c.131,0,.2.076.269.193a.228.228,0,0,1-.083.3l-.179.131a.566.566,0,0,1-.311.1h-.062a.532.532,0,0,1-.3-.1h0a1.3,1.3,0,0,0,.635.58h.09l-.387.766a.69.69,0,0,1-.048.966l-.11.11h3.127v-3.113a.966.966,0,0,0-.69-.939h-.041a2.6,2.6,0,0,0-.863-.083l-.759.048a.326.326,0,0,0-.117,0Z" transform="translate(-285.734 -336.309)"/>
        <path id="Path_9796" data-name="Path 9796" class="cls-14" d="M290.129,335.527s-.117,2.409,2.036,2.8v-.98l-1.484-1.919Z" transform="translate(-286.319 -335.002)"/>
        <path id="Path_9797" data-name="Path 9797" class="cls-14" d="M285.235,338.283a4.142,4.142,0,0,0,3.707-1.712v-1h-1.464l-2.389,2.3Z" transform="translate(-284.759 -335.045)"/>
      </g>
      <circle id="Ellipse_2546" data-name="Ellipse 2546" class="cls-19" cx="0.276" cy="0.276" r="0.276" transform="translate(4.756 5.661)"/>
      <circle id="Ellipse_2547" data-name="Ellipse 2547" class="cls-19" cx="0.276" cy="0.276" r="0.276" transform="translate(7.677 5.661)"/>
      <path id="Path_9798" data-name="Path 9798" class="cls-13" d="M284,338.25a6.213,6.213,0,0,0,4.335-2.692,2.824,2.824,0,0,0,2.761,2.071,16.045,16.045,0,0,1-1.194-1.574l.725.214a3.956,3.956,0,0,0-3.452-1.919C284.815,334.4,284,336.642,284,338.25Z" transform="translate(-280.824 -332.693)"/>
      <path id="Path_9799" data-name="Path 9799" class="cls-20" d="M287.28,343a1.077,1.077,0,0,0,2.071,0Z" transform="translate(-281.84 -335.372)"/>
      <path id="Path_9800" data-name="Path 9800" class="cls-6" d="M287.28,343a1.153,1.153,0,0,0,1.035.518,1.132,1.132,0,0,0,1.029-.518Z" transform="translate(-281.84 -335.372)"/>
      <path id="Path_9801" data-name="Path 9801" class="cls-13" d="M291.253,339.981a.076.076,0,0,1-.062,0,.974.974,0,0,0-.642-.249.939.939,0,0,0-.635.249.1.1,0,1,1-.138-.145,1.153,1.153,0,0,1,1.546,0,.1.1,0,0,1,0,.145.1.1,0,0,1-.069,0Z" transform="translate(-282.596 -334.3)"/>
      <path id="Path_9802" data-name="Path 9802" class="cls-13" d="M287.041,339.982a.09.09,0,0,1-.069,0,.946.946,0,0,0-1.277,0,.1.1,0,0,1-.138,0,.1.1,0,0,1,0-.145,1.126,1.126,0,0,1,.773-.3,1.153,1.153,0,0,1,.773.3.1.1,0,0,1,0,.145A.083.083,0,0,1,287.041,339.982Z" transform="translate(-281.297 -334.3)"/>
      <path id="Path_9803" data-name="Path 9803" class="cls-13" d="M284.648,339.765v1.2a2,2,0,0,1-.359-1.256,2.181,2.181,0,0,1,.359.055Z" transform="translate(-280.913 -334.353)"/>
      <path id="Path_9804" data-name="Path 9804" class="cls-13" d="M292.72,338.6v2.016a2,2,0,0,0,.359-1.256C293.079,338.409,292.72,338.6,292.72,338.6Z" transform="translate(-283.525 -334.005)"/>
      <path id="Path_9805" data-name="Path 9805" class="cls-21" d="M283.255,346.08h0a1.774,1.774,0,0,0,1.381,1.733l1.381.29,1.381-.29a1.774,1.774,0,0,0,1.381-1.733h0a2.168,2.168,0,0,1,2,1.381l1.436,3.811-12.426-.1,1.477-3.693a2.147,2.147,0,0,1,2.009-1.381Z" transform="translate(-279.521 -336.325)"/>
      <g id="Group_19885" data-name="Group 19885" class="cls-22" transform="translate(0.242 9.755)">
        <path id="Path_9806" data-name="Path 9806" class="cls-23" d="M291.891,353.089s-.456-3.638-1.381-4.936l.29-.069a2.071,2.071,0,0,0,1.533-1.643l.055-.331h2.251l1.118,5.378Z" transform="translate(-283.082 -346.089)"/>
        <path id="Path_9807" data-name="Path 9807" class="cls-23" d="M282.5,349.68h0a8.284,8.284,0,0,0,0,3.4h0l-1.76-.511a7.332,7.332,0,0,1,1.76-2.886Z" transform="translate(-280.057 -347.195)"/>
      </g>
      <path id="Path_9809" data-name="Path 9809" class="cls-14" d="M287.278,342.454a.414.414,0,0,0-.393.1.407.407,0,0,0-.111.394Z" transform="translate(-281.679 -335.198)"/>
    </g>
    <g id="Group_19887" data-name="Group 19887" class="cls-10" transform="translate(53.088 189.99)">
      <rect id="Rectangle_16296" data-name="Rectangle 16296" class="cls-24" width="15.036" height="14.994" transform="translate(-0.987 -0.987)"/>
      <path id="Path_9810" data-name="Path 9810" class="cls-25" d="M269.535,367.5a5.917,5.917,0,0,0-2.278-1.809l-1.926-.9-3.141.69a12.186,12.186,0,0,0-3.783,1.8l-.766,4.246h12.6Z" transform="translate(-257.875 -356.63)"/>
      <path id="Path_9811" data-name="Path 9811" class="cls-26" d="M261.851,369.373l1.077-.69-1.063.083.559-1.705a5.84,5.84,0,0,0-3.065,1.822l-.739,3.369h5.785C263.149,370.864,261.851,369.373,261.851,369.373Z" transform="translate(-258.178 -357.333)"/>
      <path id="Path_9812" data-name="Path 9812" class="cls-26" d="M272.658,368.412a4.218,4.218,0,0,0-2.485-1.712l.787,1.45-.69.034.822.58a32.656,32.656,0,0,1-2.071,3.348h4.363Z" transform="translate(-261.399 -357.221)"/>
      <path id="Path_9813" data-name="Path 9813" class="cls-18" d="M84.65,288.407l.566.9,1.45.808,1.16-.973-.055-1.118Z" transform="translate(-79.431 -279.177)"/>
      <path id="Path_9814" data-name="Path 9814" class="cls-6" d="M268.743,365.9l-3.4-.221-.034.269a2.2,2.2,0,0,0,.159,1.132l1.2,2.886.9,1.332.9-2.181a10.959,10.959,0,0,0,.255-2.071.923.923,0,0,0,0-.138Z" transform="translate(-260.245 -356.906)"/>
      <path id="Path_9815" data-name="Path 9815" class="cls-27" d="M268.805,366.24l-3.355.055a3.977,3.977,0,0,0,1.125,1.229l-.532.918,1-.69.255.076a2.237,2.237,0,0,0,.9.062l.5.373-.173-.476a.628.628,0,0,0,.242-.186v-.055A7.087,7.087,0,0,0,268.805,366.24Z" transform="translate(-260.293 -357.079)"/>
      <path id="Path_9816" data-name="Path 9816" class="cls-28" d="M267.29,370.731l.773,1.836a9.121,9.121,0,0,0,1.022-2.623l-.373-1.595-.739-.269-.338.338Z" transform="translate(-260.863 -357.649)"/>
      <path id="Path_9817" data-name="Path 9817" class="cls-29" d="M86.85,289.1l.035,1.167,1.077-.069-.09-1.146Z" transform="translate(-80.112 -279.496)"/>
      <path id="Path_9818" data-name="Path 9818" class="cls-30" d="M265.815,355.56h0a3.072,3.072,0,0,0-3.065,2.81.545.545,0,0,0-.69.511v.6a.766.766,0,0,0,.773.766h.083a2.927,2.927,0,0,0,2.9,2.934h0a3.072,3.072,0,0,0,3.065-3.072v-1.484A3.065,3.065,0,0,0,265.815,355.56Z" transform="translate(-259.243 -353.772)"/>
      <path id="Path_9819" data-name="Path 9819" class="cls-31" d="M267.491,364.57a3.072,3.072,0,0,0,3.065-3.072v-1.443a2.189,2.189,0,0,0-.428,0h-1.256a.794.794,0,0,0,.055.69l.318.642a.276.276,0,0,1-.18.387l-.442.11a.276.276,0,0,0-.207.262l.117.98a1.236,1.236,0,0,1-.732,1.284l-.331.138Z" transform="translate(-260.919 -355.161)"/>
      <rect id="Rectangle_16297" data-name="Rectangle 16297" class="cls-1" width="6.137" height="7.621" rx="3.069" transform="translate(3.5 1.788)"/>
      <circle id="Ellipse_2549" data-name="Ellipse 2549" class="cls-32" cx="0.235" cy="0.235" r="0.235" transform="translate(5.737 5.233)"/>
      <circle id="Ellipse_2550" data-name="Ellipse 2550" class="cls-32" cx="0.221" cy="0.221" r="0.221" transform="translate(8.408 5.247)"/>
      <path id="Path_9820" data-name="Path 9820" class="cls-32" d="M268.653,360.814a1.5,1.5,0,0,0-1.3-.1l-.373.145-.276-.131a1.526,1.526,0,0,0-1.3,0l-.6.311a.953.953,0,0,1-.946-.96l.076-1.381a.532.532,0,0,1,.29-.435l.117-.048a.511.511,0,0,0,.29-.462v-.269a.573.573,0,0,1,.628-.566l.856.1a2.43,2.43,0,0,1,1.229.49l.635.476-.062-.9.773.545-.3-.96.476.124s-.532-1.256-2.886-1.256-3,1.595-3,2.416c0,.1-.145.235-.145.373a.531.531,0,0,1,.538.532v1.381h-.387a5.043,5.043,0,0,0,.469,1.5h0a2.941,2.941,0,0,0,2.679,1.719h.78a2.2,2.2,0,0,0,2.2-2.2v-.235l-.249-.145Z" transform="translate(-259.485 -353.766)"/>
      <path id="Path_9821" data-name="Path 9821" class="cls-6" d="M266.87,363.54h2.2a1.049,1.049,0,0,1-.96.607A1.87,1.87,0,0,1,266.87,363.54Z" transform="translate(-260.733 -356.243)"/>
      <path id="Path_9822" data-name="Path 9822" class="cls-30" d="M88.833,283.73l-.573-1.16-.11.973Z" transform="translate(-80.515 -277.489)"/>
      <path id="Path_9823" data-name="Path 9823" class="cls-26" d="M268.814,359.794H267.73a1.229,1.229,0,0,0-1.256-.076l-.152.076H263.45a.476.476,0,0,1,.1.207h1.215a.386.386,0,0,0-.048.18v.463a.525.525,0,0,0,.532.525h.849a.525.525,0,0,0,.525-.525v-.773a1,1,0,0,1,.856,0h0a1.275,1.275,0,0,0,.138.573l.09.18v-.69h1.111a.173.173,0,0,1,.18.18v.462a.3.3,0,0,1-.3.311H268a.339.339,0,0,1-.2-.076l.145.29h.718a.525.525,0,0,0,.525-.525v-.462A.4.4,0,0,0,268.814,359.794Zm-2.409.863a.311.311,0,0,1-.3.311h-.849a.311.311,0,0,1-.311-.311v-.462a.179.179,0,0,1,.18-.179H266.4Z" transform="translate(-259.674 -355.017)"/>
      <path id="Path_9824" data-name="Path 9824" class="cls-26" d="M90,282.12h.69a.11.11,0,0,1,.11.11h0a.11.11,0,0,1-.11.11H90v-.221Z" transform="translate(-81.088 -277.35)"/>
      <path id="Path_9825" data-name="Path 9825" class="cls-19" d="M265.981,355.265a2.9,2.9,0,0,0-3.141,2.616v.373a.545.545,0,0,1,.435.221v-.8a2.513,2.513,0,0,1,2.637-1.912,3.362,3.362,0,0,1,2.761,1.767h.041l-.138-.808.628.186a3.535,3.535,0,0,0-3.224-1.643Z" transform="translate(-259.485 -353.677)"/>
      <path id="Path_9826" data-name="Path 9826" class="cls-19" d="M269.111,362.743a1.505,1.505,0,0,0-1.3-.076l-.373.145-.276-.124a1.526,1.526,0,0,0-1.3,0l-.6.3a.863.863,0,0,1-.946-.815v.442a.849.849,0,0,0,.849.877h0a1.256,1.256,0,0,0,.918-.394h2.534a.5.5,0,0,1,.276.083h0a.532.532,0,0,0,.621-.055l.069-.062v-.69l-.324.463Z" transform="translate(-259.943 -355.819)"/>
      <path id="Path_9827" data-name="Path 9827" class="cls-19" d="M267.92,365.177h1.1a.538.538,0,0,0-.559-.518.518.518,0,0,0-.545.518Z" transform="translate(-261.058 -356.59)"/>
    </g>
    <g id="Group_19890" data-name="Group 19890" class="cls-10" transform="translate(116.786 188.471)">
      <rect id="Rectangle_16298" data-name="Rectangle 16298" class="cls-33" width="15.036" height="14.994" transform="translate(-0.987 -1.07)"/>
      <path id="Path_9828" data-name="Path 9828" class="cls-27" d="M355.76,362.917l1.47-.138a6.456,6.456,0,0,1,3.383.628l-.083.621.131,1.415h-4.874Z" transform="translate(-351.956 -354.474)"/>
      <path id="Path_9829" data-name="Path 9829" class="cls-34" d="M355.188,361.62l-.1,1.125a1.27,1.27,0,0,1-1.084,1.132l-.456.062a1.85,1.85,0,0,0-1.6,1.836h0l6.531,1.035,2.25-1.926v-.5a.766.766,0,0,0-.787-.759h0a1.249,1.249,0,0,1-1.312-1.256v-.566Z" transform="translate(-350.776 -354.13)"/>
      <g id="Group_19888" data-name="Group 19888" class="cls-35" transform="translate(1.174 7.49)">
        <path id="Path_9830" data-name="Path 9830" class="cls-36" d="M357.07,363.17a21.157,21.157,0,0,0,2.761,2.071c.545.179,1.795-.538,1.795-.538l-1.339-1.933Z" transform="translate(-353.535 -361.976)"/>
      </g>
      <path id="Path_9832" data-name="Path 9832" class="cls-36" d="M363.2,358.413l.352-.145a.407.407,0,0,1,.545.3v.055a1.505,1.505,0,0,1-.393,1.3h0a.49.49,0,0,1-.518.131l-.269-.09Z" transform="translate(-354.173 -353.083)"/>
      <path id="Path_9833" data-name="Path 9833" class="cls-34" d="M355.259,357.186l-.331-.235a.421.421,0,0,0-.642.173v.055a1.608,1.608,0,0,0,.069,1.464h0a.518.518,0,0,0,.5.262h.311Z" transform="translate(-351.455 -352.658)"/>
      <path id="Path_9834" data-name="Path 9834" class="cls-36" d="M355.485,357.628l-.255-.186a.331.331,0,0,0-.5.131v.048a1.284,1.284,0,0,0,.055,1.132h0a.435.435,0,0,0,.393.207h.235Z" transform="translate(-351.605 -352.816)"/>
      <rect id="Rectangle_16299" data-name="Rectangle 16299" class="cls-34" width="5.944" height="7.47" rx="2.972" transform="matrix(0.993, 0.122, -0.122, 0.993, 4.04, 1.352)"/>
      <g id="Group_19889" data-name="Group 19889" class="cls-37" transform="translate(3.131 1.352)">
        <path id="Path_9835" data-name="Path 9835" class="cls-36" d="M362.476,358.671l-.248-.186a1.678,1.678,0,0,0-1.505-.276h0a.559.559,0,0,0-.359.739l.228.58a.38.38,0,0,1-.3.518l-.69.11-.083.69.055.083a1.049,1.049,0,0,1-.311,1.422l-.186.117,3.376.414.49-3.99Z" transform="translate(-356.115 -354.403)"/>
      </g>
      <circle id="Ellipse_2552" data-name="Ellipse 2552" class="cls-32" cx="0.283" cy="0.283" r="0.283" transform="translate(4.777 5.067)"/>
      <circle id="Ellipse_2553" data-name="Ellipse 2553" class="cls-32" cx="0.283" cy="0.283" r="0.283" transform="translate(8.091 5.474)"/>
      <path id="Path_9836" data-name="Path 9836" class="cls-32" d="M358.389,360.19a2.389,2.389,0,0,0-1.526-.318l-.552.221a.248.248,0,0,1-.338-.235V358.74a.407.407,0,0,0-.331-.4l-.435-.09-.145,1.167a2.182,2.182,0,0,0,.69,1.9l.594.532a2.761,2.761,0,0,0,1.519.69h0a2.761,2.761,0,0,0,2.071-.573l.352-.269a1.884,1.884,0,0,0,.69-1.229l.159-1.284h0a.407.407,0,0,0-.442.29l-.249.842a.345.345,0,0,1-.518.193l-.248-.166a1.277,1.277,0,0,0-.891-.207Z" transform="translate(-351.734 -353.086)"/>
      <path id="Path_9837" data-name="Path 9837" class="cls-6" d="M358.09,361.33l.442.193a3,3,0,0,0,1.567.269l.449-.055-.656.525a.967.967,0,0,1-.69.207h0a.966.966,0,0,1-.732-.5Z" transform="translate(-352.678 -354.04)"/>
      <path id="Path_9838" data-name="Path 9838" class="cls-38" d="M356.47,357.52a1.236,1.236,0,0,1,1.477,0" transform="translate(-352.176 -352.784)"/>
      <path id="Path_9839" data-name="Path 9839" class="cls-38" d="M361.41,358.256a1.229,1.229,0,0,1,1.457.228" transform="translate(-353.706 -353.043)"/>
      <ellipse id="Ellipse_2554" data-name="Ellipse 2554" class="cls-39" cx="0.946" cy="0.525" rx="0.946" ry="0.525" transform="translate(4.613 2.791) rotate(-23.01)"/>
      <path id="Path_9840" data-name="Path 9840" class="cls-6" d="M354.4,363l1.609,1.263.835,1.968.856-1.926,1.553-.815.173.566h.338a2.692,2.692,0,0,1,2.423,1.519l1.933,4.011H351.37v-3.541a1.76,1.76,0,0,1,1.332-1.705l1.581-.387Z" transform="translate(-350.597 -354.557)"/>
      <path id="Path_9841" data-name="Path 9841" class="cls-27" d="M176.529,288.662l-.359-1.132-1.07,1.526,1.07-.463Z" transform="translate(-171.137 -277.506)"/>
      <path id="Path_9842" data-name="Path 9842" class="cls-27" d="M179.5,287.62l.9.953.663-1.042-.7,1.836Z" transform="translate(-172.5 -277.506)"/>
      <circle id="Ellipse_2555" data-name="Ellipse 2555" class="cls-27" cx="0.193" cy="0.193" r="0.193" transform="translate(5.281 11.991)"/>
    </g>
    <g id="Group_19891" data-name="Group 19891" class="cls-10" transform="translate(97.94 175.479)">
      <rect id="Rectangle_16301" data-name="Rectangle 16301" class="cls-40" width="15.036" height="14.994" transform="translate(-0.987 -0.987)"/>
      <ellipse id="Ellipse_2557" data-name="Ellipse 2557" class="cls-41" cx="4.653" cy="0.352" rx="4.653" ry="0.352" transform="translate(1.814 4.443) rotate(-3.62)"/>
      <path id="Path_9843" data-name="Path 9843" class="cls-42" d="M328.32,339.308V337.12a2.623,2.623,0,0,1,2.761-2.582h0a2.616,2.616,0,0,1,2.761,2.582v2.188a3.024,3.024,0,0,1-2.761,3.051h0" transform="translate(-324.613 -332.75)"/>
      <path id="Path_9844" data-name="Path 9844" class="cls-43" d="M330.8,334.538a2.623,2.623,0,0,0-2.761,2.582v1.035a.407.407,0,0,0-.255-.09.428.428,0,0,0-.428.421v.469a.642.642,0,0,0,.642.635h.055a2.765,2.765,0,0,0,5.523-.283V337.12a2.617,2.617,0,0,0-2.775-2.582Z" transform="translate(-324.316 -332.75)"/>
      <path id="Path_9845" data-name="Path 9845" class="cls-44" d="M330.7,334.54c-.138,0-.159,1.774-.29,1.788-.1-.186,2.761-.138,2.761,1.256v4.4a3.258,3.258,0,0,0,1.381-2.672v-2.188C334.523,335.589,332.231,334.54,330.7,334.54Z" transform="translate(-325.259 -332.752)"/>
      <path id="Path_9846" data-name="Path 9846" class="cls-44" d="M334.87,339.545c-.214,0-.387.076-.421.283l-.055.483h0a2.954,2.954,0,0,0-.69-.953l-1.035-.048c-.393,0-.69.249-.628.635l.152,1.029c.041.2.083.394-.124.394h-.152c-.145,0-.173.359-.173.5v1.464a.5.5,0,0,1-.186.476h0a2.764,2.764,0,0,1-1.167-.435v.9h2.761v-.822a3.32,3.32,0,0,0,1.381-2.409h.145c.352,0,.635,0,.635-.359v-.469C335.291,340.007,335.105,339.545,334.87,339.545Z" transform="translate(-325.254 -334.229)"/>
      <path id="Path_9847" data-name="Path 9847" class="cls-1" d="M328.32,339.308V337.12a2.623,2.623,0,0,1,2.761-2.582h0a2.616,2.616,0,0,1,2.761,2.582v2.188a3.024,3.024,0,0,1-2.761,3.051h0" transform="translate(-324.613 -332.75)"/>
      <rect id="Rectangle_16302" data-name="Rectangle 16302" class="cls-44" width="0.725" height="0.297" transform="translate(6.151 5.26)"/>
      <path id="Path_9848" data-name="Path 9848" class="cls-6" d="M331,343.31a1.2,1.2,0,0,0,1.036.421,1.215,1.215,0,0,0,1.036-.421Z" transform="translate(-325.443 -335.468)"/>
      <path id="Path_9849" data-name="Path 9849" class="cls-45" d="M323.52,350.178l.207-1.871a1.312,1.312,0,0,1,1.077-1.153l3.452-.614,1.47,3.638Z" transform="translate(-323.126 -336.468)"/>
      <path id="Path_9850" data-name="Path 9850" class="cls-45" d="M338.409,350.178l-.18-1.857a1.263,1.263,0,0,0-1.036-1.132l-3.514-.649-1.47,3.638Z" transform="translate(-325.817 -336.468)"/>
      <path id="Path_9851" data-name="Path 9851" class="cls-44" d="M150.844,272.173v-3.4H149.47Z" transform="translate(-144.355 -258.705)"/>
      <path id="Path_9852" data-name="Path 9852" class="cls-46" d="M151.46,272.173v-3.4h1.374Z" transform="translate(-144.971 -258.705)"/>
      <path id="Path_9853" data-name="Path 9853" class="cls-47" d="M332.266,345.721h-.186v1.74h1.56V345.39a2.809,2.809,0,0,1-1.381.359Z" transform="translate(-325.777 -336.112)"/>
      <path id="Path_9854" data-name="Path 9854" class="cls-48" d="M150.567,272.759l1.968-2.879H148.6Z" transform="translate(-144.085 -259.048)"/>
      <circle id="Ellipse_2558" data-name="Ellipse 2558" class="cls-32" cx="0.255" cy="0.255" r="0.255" transform="translate(4.97 5.447)"/>
      <circle id="Ellipse_2559" data-name="Ellipse 2559" class="cls-32" cx="0.255" cy="0.255" r="0.255" transform="translate(7.552 5.447)"/>
      <rect id="Rectangle_16303" data-name="Rectangle 16303" class="cls-32" width="0.58" height="2.547" transform="translate(3.652 2.858)"/>
      <path id="Path_9855" data-name="Path 9855" class="cls-32" d="M332.807,342.469s-.815-.069-.932-.069-.939.069-.939.069a.511.511,0,0,0-.366.794l.09-.2c.1-.2,1.215-.214,1.215-.214s1.118,0,1.208.214l.1.2a.518.518,0,0,0-.373-.794Z" transform="translate(-325.283 -335.186)"/>
      <path id="Path_9856" data-name="Path 9856" class="cls-32" d="M332.684,344.975c-.345,0-.483-.815-.483-.815h-.5s-.131.815-.476.815c0,0-.193.131-.2.173a2.609,2.609,0,0,0,.939.193,2.658,2.658,0,0,0,.946-.193A1.65,1.65,0,0,0,332.684,344.975Z" transform="translate(-325.449 -335.731)"/>
      <rect id="Rectangle_16304" data-name="Rectangle 16304" class="cls-49" width="0.897" height="0.304" rx="0.152" transform="translate(3.5 5.15)"/>
      <path id="Path_9857" data-name="Path 9857" class="cls-32" d="M328.82,337.585s0-1.381,2.361-1.381v-.794H328.24V337.6Z" transform="translate(-324.588 -333.021)"/>
      <rect id="Rectangle_16305" data-name="Rectangle 16305" class="cls-32" width="0.58" height="2.471" transform="translate(9.306 5.412) rotate(180)"/>
      <path id="Path_9858" data-name="Path 9858" class="cls-32" d="M334.531,337.585c0,.311,0-1.381-2.361-1.381v-.794l2.941.076V337.6Z" transform="translate(-325.805 -333.021)"/>
      <path id="Path_9859" data-name="Path 9859" class="cls-44" d="M330.8,339.25h-1.381a.421.421,0,0,0-.421.421s0,.69.034.953c.048.4.235.566.442.566h1.229c.2,0,.311-.173.366-.566l.138-.953a.421.421,0,0,0-.407-.421Zm.076,1.291c-.041.311-.131.442-.29.442h-.966c-.159,0-.311-.131-.345-.442v-.752a.338.338,0,0,1,.331-.331h1.077a.331.331,0,0,1,.331.331Z" transform="translate(-324.823 -334.21)"/>
      <path id="Path_9860" data-name="Path 9860" class="cls-47" d="M332.74,339.671l.145.953c.055.394.166.566.366.566h1.229c.207,0,.393-.166.442-.566,0-.235.034-.953.034-.953a.421.421,0,0,0-.421-.421h-1.381a.428.428,0,0,0-.414.421Zm.235.117a.338.338,0,0,1,.338-.331h1.077a.338.338,0,0,1,.331.331v.752c-.041.311-.186.442-.345.442h-.966c-.159,0-.249-.131-.29-.442Z" transform="translate(-325.982 -334.211)"/>
      <path id="Path_9861" data-name="Path 9861" class="cls-49" d="M332.64,339.531l.145.953c.055.394.166.559.366.559h1.229c.2,0,.387-.159.435-.559v-.953a.421.421,0,0,0-.421-.421h-1.381A.421.421,0,0,0,332.64,339.531Zm.235.117a.331.331,0,0,1,.331-.331h1.063a.331.331,0,0,1,.338.331,6.947,6.947,0,0,1-.035.746c0,.318-.186.449-.345.449h-.966c-.159,0-.242-.138-.29-.449Z" transform="translate(-325.951 -334.167)"/>
      <rect id="Rectangle_16306" data-name="Rectangle 16306" class="cls-49" width="0.897" height="0.304" rx="0.152" transform="translate(8.643 5.15)"/>
      <path id="Path_9862" data-name="Path 9862" class="cls-49" d="M330.732,339.11h-1.381a.421.421,0,0,0-.421.421s0,.69.034.953c.048.4.235.559.435.559h1.229c.207,0,.311-.166.366-.559l.145-.953a.421.421,0,0,0-.407-.421Zm.076,1.284c-.048.311-.131.449-.29.449h-.967c-.159,0-.311-.131-.345-.449v-.746a.325.325,0,0,1,.331-.331h1.077a.331.331,0,0,1,.331.331Z" transform="translate(-324.802 -334.167)"/>
      <rect id="Rectangle_16307" data-name="Rectangle 16307" class="cls-49" width="0.725" height="0.297" transform="translate(6.13 5.15)"/>
      <path id="Path_9863" data-name="Path 9863" class="cls-44" d="M329.08,338.86" transform="translate(-324.848 -334.09)"/>
      <path id="Path_9864" data-name="Path 9864" class="cls-44" d="M329.075,338.66s.173-.331.973-.331h2.023a1.511,1.511,0,0,1,.794.207l.041-.946h-3.79A5.037,5.037,0,0,0,329.075,338.66Z" transform="translate(-324.843 -333.696)"/>
      <path id="Path_9865" data-name="Path 9865" class="cls-50" d="M327.69,337.113s.09-1.484.193-1.961.318-.877,1.457-.953c0,0,1.871-.283,2.727-.29.725,0,1.9.117,1.905,2.7Z" transform="translate(-324.418 -332.557)"/>
      <rect id="Rectangle_16308" data-name="Rectangle 16308" class="cls-32" width="1.029" height="0.262" rx="0.131" transform="translate(4.743 4.701)"/>
      <rect id="Rectangle_16309" data-name="Rectangle 16309" class="cls-32" width="1.029" height="0.262" rx="0.131" transform="translate(7.159 4.701)"/>
      <path id="Path_9866" data-name="Path 9866" class="cls-51" d="M329.981,334.21l-.621.083c-1.139.076-1.381.525-1.457.953s-.193,1.961-.193,1.961l.884-.069A3.756,3.756,0,0,0,329.981,334.21Z" transform="translate(-324.424 -332.65)"/>
      <path id="Path_9867" data-name="Path 9867" class="cls-52" d="M334.188,333.91a3.845,3.845,0,0,0,.994,2.761l.8-.062C335.976,334.159,334.913,333.917,334.188,333.91Z" transform="translate(-326.429 -332.557)"/>
      <path id="Path_9868" data-name="Path 9868" class="cls-20" d="M151.726,270.219l-.483.608-.483-.608.483-.359Z" transform="translate(-144.754 -259.042)"/>
      <path id="Path_9869" data-name="Path 9869" class="cls-53" d="M334.905,337.956h0c0-.242-2.106-.3-4.674-.145s-4.625.49-4.611.732h0a53.15,53.15,0,0,1,9.285-.587Z" transform="translate(-323.777 -333.738)"/>
      <path id="Path_9870" data-name="Path 9870" class="cls-54" d="M325.62,338.59h0a36.986,36.986,0,0,1,3.707-.435l.207-.255C327.3,338.086,325.606,338.369,325.62,338.59Z" transform="translate(-323.777 -333.792)"/>
      <path id="Path_9871" data-name="Path 9871" class="cls-55" d="M152.07,269.912l.96-1.312.373.359-.483,1.85Z" transform="translate(-145.16 -258.652)"/>
      <path id="Path_9872" data-name="Path 9872" class="cls-55" d="M150.276,269.939l-.98-1.339-.366.359.476,1.85Z" transform="translate(-144.187 -258.652)"/>
      <path id="Path_9873" data-name="Path 9873" class="cls-20" d="M151.749,272.932H150.72l.235-2.492h.552Z" transform="translate(-144.742 -259.222)"/>
      <path id="Path_9874" data-name="Path 9874" class="cls-56" d="M150.677,269.4,149.3,268.36l-.366.352.476,1.622Z" transform="translate(-144.187 -258.578)"/>
      <path id="Path_9875" data-name="Path 9875" class="cls-56" d="M151.46,269.4l1.381-1.036.373.352-.483,1.622Z" transform="translate(-144.971 -258.578)"/>
      <path id="Path_9876" data-name="Path 9876" class="cls-57" d="M148.505,268.87l-.925,1.519,2.043.953Z" transform="translate(-143.769 -258.736)"/>
      <path id="Path_9877" data-name="Path 9877" class="cls-57" d="M153.5,268.87l.925,1.519-2.05.953Z" transform="translate(-145.253 -258.736)"/>
      <path id="Path_9878" data-name="Path 9878" class="cls-57" d="M149.405,270.83l-.925,1.526,1.484.7h.442Z" transform="translate(-144.048 -259.343)"/>
      <path id="Path_9879" data-name="Path 9879" class="cls-57" d="M153.586,272.356l-.925-1.526-1,2.223h.435Z" transform="translate(-145.033 -259.343)"/>
    </g>
    <g id="Group_19893" data-name="Group 19893" class="cls-10" transform="translate(69.435 202.982)">
      <rect id="Rectangle_16310" data-name="Rectangle 16310" class="cls-58" width="15.036" height="14.994" transform="translate(-1.084 -0.939)"/>
      <path id="Path_9880" data-name="Path 9880" class="cls-59" d="M282.9,391.364s-.331-4.563,3.673-4.694h3.693a2.975,2.975,0,0,1,2.844,2.568c.131.587.532,2.126.532,2.126Z" transform="translate(-282.041 -376.398)"/>
      <path id="Path_9881" data-name="Path 9881" class="cls-60" d="M294.752,388.96c-.345-1.526-1.954-2.23-3.493-2.32h-2.913c-2.616,1.381-2.216,4.536-2.216,4.536h8.878A15.575,15.575,0,0,0,294.752,388.96Z" transform="translate(-283.037 -376.388)"/>
      <path id="Path_9882" data-name="Path 9882" class="cls-30" d="M288.51,384.34v.262a1.781,1.781,0,0,1-.532,1.381h-.048l.725.649a1.443,1.443,0,0,0,.966.38,2.533,2.533,0,0,0,1.615-.49l.545-.566h0a1.257,1.257,0,0,1-.49-1.008v-.573Z" transform="translate(-283.602 -375.676)"/>
      <path id="Path_9883" data-name="Path 9883" class="cls-61" d="M291.839,384.963v-.573H289.8l-.173.38a2.6,2.6,0,0,0,1.809,2.016,1.205,1.205,0,0,0,.345-.235l.545-.566h0A1.256,1.256,0,0,1,291.839,384.963Z" transform="translate(-284.128 -375.692)"/>
      <path id="Path_9884" data-name="Path 9884" class="cls-61" d="M.759,0h.318V1.5H.759A.759.759,0,0,1,0,.746H0A.759.759,0,0,1,.759,0Z" transform="translate(9.851 7.072) rotate(-179.89)"/>
      <path id="Path_9885" data-name="Path 9885" class="cls-30" d="M289.587,382.415h0a2.941,2.941,0,0,1-2.927-2.934v-1.346c0-1.553,1.263-2.382,2.81-2.375h1.077a1.961,1.961,0,0,1,1.967,1.974v1.754a2.941,2.941,0,0,1-2.927,2.927Z" transform="translate(-283.208 -373.019)"/>
      <g id="Group_19892" data-name="Group 19892" class="cls-62" transform="translate(3.452 2.741)">
        <path id="Path_9886" data-name="Path 9886" class="cls-61" d="M291.667,381.182h-.387v.345h0c.311.759.96,1.629.311,2.126h0l2.368-.338V379.36h-1.871a.283.283,0,0,0-.283.331l.193,1.091a.324.324,0,0,1-.331.4Z" transform="translate(-288.091 -376.875)"/>
      </g>
      <path id="Path_9888" data-name="Path 9888" class="cls-6" d="M289.88,382.6a1.015,1.015,0,0,0,1.912,0Z" transform="translate(-284.205 -375.137)"/>
      <circle id="Ellipse_2561" data-name="Ellipse 2561" class="cls-19" cx="0.29" cy="0.29" r="0.29" transform="translate(4.632 5.55)"/>
      <circle id="Ellipse_2562" data-name="Ellipse 2562" class="cls-19" cx="0.29" cy="0.29" r="0.29" transform="translate(7.904 5.557)"/>
      <path id="Path_9889" data-name="Path 9889" class="cls-19" d="M290.978,375.69l1.381,2.009S290.619,377.816,290.978,375.69Z" transform="translate(-284.53 -372.998)"/>
      <rect id="Rectangle_16311" data-name="Rectangle 16311" class="cls-19" width="1.464" height="0.297" rx="0.148" transform="translate(7.506 5.041) rotate(0.11)"/>
      <rect id="Rectangle_16312" data-name="Rectangle 16312" class="cls-19" width="1.464" height="0.297" rx="0.148" transform="translate(4.206 5.027) rotate(0.11)"/>
      <path id="Path_9890" data-name="Path 9890" class="cls-19" d="M290.121,374.68h-.69a2.934,2.934,0,0,0-2.941,2.927v1.822h.815v-1.16c1.2-.076,2.119-.58,2.327-2.761a4.031,4.031,0,0,0,3.279,1.65C292.144,376.675,292.365,374.68,290.121,374.68Z" transform="translate(-283.156 -372.685)"/>
      <path id="Path_9891" data-name="Path 9891" class="cls-30" d="M.759,0h.318V1.5H.759A.759.759,0,0,1,0,.746H0A.759.759,0,0,1,.759,0Z" transform="translate(2.651 5.535) rotate(0.11)"/>
      <path id="Path_9892" data-name="Path 9892" class="cls-61" d="M289.975,382.087a.463.463,0,0,0-.532.076.456.456,0,0,0-.076.525Z" transform="translate(-284.031 -374.962)"/>
      <rect id="Rectangle_16313" data-name="Rectangle 16313" class="cls-19" width="0.297" height="2.506" transform="translate(9.057 4.232)"/>
    </g>
    <g id="Group_19894" data-name="Group 19894" class="cls-10" transform="translate(104.519 201.463)">
      <rect id="Rectangle_16314" data-name="Rectangle 16314" class="cls-11" width="15.036" height="14.994" transform="translate(-0.87 -0.98)"/>
      <path id="Path_9893" data-name="Path 9893" class="cls-24" d="M341.984,379.612h0a5.088,5.088,0,0,0,2.009-3,7.484,7.484,0,0,0-.69-3.217l-.69-1.229a1.705,1.705,0,0,0-.5-.559,2.685,2.685,0,0,0-3.2.1h0a3.742,3.742,0,0,0-1.422,2.934v3.307Z" transform="translate(-334.031 -370.065)"/>
      <path id="Path_9894" data-name="Path 9894" class="cls-42" d="M340.688,372.39h-.38a2.865,2.865,0,0,0-2.858,2.858v1.816a2.872,2.872,0,0,0,1.926,2.7l-.048,1.111-1.546.594,1.823,2.7a.69.69,0,0,0,1.25-.048l1.526-2.824-.587-1.111.041-.5a2.872,2.872,0,0,0,1.705-2.616v-1.816A2.865,2.865,0,0,0,340.688,372.39Z" transform="translate(-334.019 -370.457)"/>
      <path id="Path_9895" data-name="Path 9895" class="cls-6" d="M159.478,308.24h2.637l-1.6,3.445-1.084-2.906Z" transform="translate(-154.018 -296.911)"/>
      <path id="Path_9896" data-name="Path 9896" class="cls-18" d="M338.581,376.144a6.089,6.089,0,0,1,2.7-1.919v-.635l-2.382.442-.359,1.588Z" transform="translate(-334.357 -370.829)"/>
      <path id="Path_9897" data-name="Path 9897" class="cls-1" d="M339.6,380.29l-.124,3.031-1.546.594,1.539,3.238a.966.966,0,0,0,1.767-.069l1.291-3.341-.587-1.111.186-2.34Z" transform="translate(-334.168 -372.903)"/>
      <path id="Path_9898" data-name="Path 9898" class="cls-63" d="M342.886,384.681,341.5,384.2l-.587-.525-1.249,3.928-1.18-3.928-1.484.338-.863.69a2.2,2.2,0,0,0-1.381,1.905l-.2,2.14h10.224l-.421-2.292a2.174,2.174,0,0,0-1.477-1.781Z" transform="translate(-333.124 -373.953)"/>
      <path id="Path_9899" data-name="Path 9899" class="cls-18" d="M340.24,380.069v.2h0l.11.69c.207.559.842.759,1.719,1.167l.6-1.622h0l.041-.5h0a2.865,2.865,0,0,0,1.719-2.554h0s0-2.071-.034-2.161a.36.36,0,0,0-.076-.1l-2.368-1.8-.366.3a4.232,4.232,0,0,0,1.381,2.154,2.764,2.764,0,0,0-.621.131h-.1a.442.442,0,0,0-.3.449l.055,1.132c0,.214-.117.255-.3.248a.2.2,0,0,0-.193.242l.138.69-.173.193a1.318,1.318,0,0,0-.283,1.284h0A2.934,2.934,0,0,1,340.24,380.069Z" transform="translate(-334.883 -370.764)"/>
      <circle id="Ellipse_2564" data-name="Ellipse 2564" class="cls-19" cx="0.297" cy="0.297" r="0.297" transform="translate(4.618 5.488)"/>
      <circle id="Ellipse_2565" data-name="Ellipse 2565" class="cls-19" cx="0.297" cy="0.297" r="0.297" transform="translate(7.663 5.488)"/>
      <path id="Path_9900" data-name="Path 9900" class="cls-34" d="M344.349,377.262a.166.166,0,0,1-.111-.048h0a.953.953,0,0,0-1.256-.131.152.152,0,0,1-.2-.055.145.145,0,0,1,.048-.193,1.249,1.249,0,0,1,1.622.193.138.138,0,0,1,0,.2.165.165,0,0,1-.1.035Z" transform="translate(-335.664 -371.767)"/>
      <path id="Path_9901" data-name="Path 9901" class="cls-34" d="M338.444,377.262a.165.165,0,0,0,.11-.048h0a.953.953,0,0,1,1.257-.131.152.152,0,0,0,.2-.055.145.145,0,0,0-.048-.193,1.25,1.25,0,0,0-1.622.193.138.138,0,0,0,0,.2.166.166,0,0,0,.1.034Z" transform="translate(-334.281 -371.767)"/>
      <path id="Path_9902" data-name="Path 9902" class="cls-24" d="M338.281,375.343v2.34a2.713,2.713,0,0,0,1.077,2.347l.476.324a2.071,2.071,0,0,0,1.581.3h0a2.072,2.072,0,0,0,.69-.318l.594-.414.255.366a.642.642,0,0,1,.048.649l-.1.207.518.78-.966.642a3.2,3.2,0,0,1-3.776-.166h0a3.4,3.4,0,0,1-1.291-2.672V375.26Z" transform="translate(-334 -371.346)"/>
      <path id="Path_9903" data-name="Path 9903" class="cls-24" d="M341.808,372.237l-.877-.787-2.071.49-1.27.9h0a5.047,5.047,0,0,0-.877,2.071l-.359,1.892a7.459,7.459,0,0,0-.214,1.747v2.761a2.292,2.292,0,0,0,.414,1.332,2.4,2.4,0,0,1,.428,1.381v.822h1.705v-1.774a1.954,1.954,0,0,0-.573-1.381h0a1.954,1.954,0,0,1-.573-1.381v-4.681l.076.055a5.523,5.523,0,0,1,2.83-2.423,8.091,8.091,0,0,1,2.83,2.858v-1.042a4.688,4.688,0,0,0-1.47-2.837Z" transform="translate(-333.613 -370.166)"/>
      <path id="Path_9904" data-name="Path 9904" class="cls-24" d="M344.671,376v1.774a3.942,3.942,0,0,1-.69,2.209c-.4.428-.918.98-1.381.98,0,.3.373.366.373.366l1.512-1.022.87-1.533v-2.3Z" transform="translate(-335.614 -371.575)"/>
      <path id="Path_9905" data-name="Path 9905" class="cls-64" d="M344.736,377v1.111a3.942,3.942,0,0,1-.69,2.209,3.08,3.08,0,0,1-1.236.96h0l1.712-.649.394-1.25a3.2,3.2,0,0,0-.179-2.382Z" transform="translate(-335.679 -371.885)"/>
      <path id="Path_9906" data-name="Path 9906" class="cls-64" d="M339.36,373.29h0a4.466,4.466,0,0,0-.69,2.361v.152a5.725,5.725,0,0,1,1.339-1.3Z" transform="translate(-334.397 -370.736)"/>
      <path id="Path_9907" data-name="Path 9907" class="cls-64" d="M343.144,383.443h0a4.363,4.363,0,0,1-4.073-.186l-1-.587v1.036a3.341,3.341,0,0,0,.849.994h0a3.2,3.2,0,0,0,3.776.166l.966-.642Z" transform="translate(-334.211 -373.64)"/>
      <path id="Path_9908" data-name="Path 9908" class="cls-24" d="M343.785,383.79a2.313,2.313,0,0,1-1.912.918c-1.5,0-1.733-.193-1.733-.193s.973,1.45,4.142.09l.041-.035-.518-.78Z" transform="translate(-334.852 -373.987)"/>
      <path id="Path_9909" data-name="Path 9909" class="cls-64" d="M345.019,374.876l-.69-1.836A1.608,1.608,0,0,0,345.019,374.876Z" transform="translate(-336.127 -370.658)"/>
      <path id="Path_9910" data-name="Path 9910" class="cls-64" d="M337.7,375.93l.228,2.6a2.761,2.761,0,0,0,.953,1.85l.946.808-1.187-.566a1.284,1.284,0,0,1-.732-1.167v-.152a1.38,1.38,0,0,0-.09-.469h0a4.37,4.37,0,0,1-.173-2.623Z" transform="translate(-334.04 -371.553)"/>
      <path id="Path_9911" data-name="Path 9911" class="cls-64" d="M337.585,389.064h0a5.888,5.888,0,0,0-.994-3.279l-.421-.635v.421a2.292,2.292,0,0,0,.414,1.332,2.4,2.4,0,0,1,.428,1.381v.822Z" transform="translate(-333.623 -374.408)"/>
      <path id="Path_9912" data-name="Path 9912" class="cls-24" d="M340.85,380.73l.331.3a.69.69,0,0,0,.456.173h.262a.642.642,0,0,0,.428-.159l.373-.3-.939.124Z" transform="translate(-335.072 -373.04)"/>
      <path id="Path_9913" data-name="Path 9913" class="cls-64" d="M340.85,380.671l.456-.117a.524.524,0,0,1,.469.117h0a.511.511,0,0,1,.463-.111l.449.111-.3.1a2,2,0,0,1-1.256,0Z" transform="translate(-335.072 -372.98)"/>
    </g>
    <circle id="Ellipse_2567" data-name="Ellipse 2567" class="cls-65" cx="6.496" cy="6.496" r="6.496" transform="translate(104.512 201.463)"/>
    <circle id="Ellipse_2568" data-name="Ellipse 2568" class="cls-65" cx="6.496" cy="6.496" r="6.496" transform="translate(116.786 188.471)"/>
    <circle id="Ellipse_2569" data-name="Ellipse 2569" class="cls-65" cx="6.496" cy="6.496" r="6.496" transform="translate(98.098 175.506)"/>
    <circle id="Ellipse_2570" data-name="Ellipse 2570" class="cls-65" cx="6.496" cy="6.496" r="6.496" transform="translate(67.91 175.479)"/>
    <circle id="Ellipse_2571" data-name="Ellipse 2571" class="cls-65" cx="6.496" cy="6.496" r="6.496" transform="translate(69.435 202.982)"/>
    <circle id="Ellipse_2572" data-name="Ellipse 2572" class="cls-65" cx="6.496" cy="6.496" r="6.496" transform="translate(52.991 189.914)"/>
    <g id="Group_19895" data-name="Group 19895" class="cls-10" transform="translate(86.77 189.99)">
      <rect id="Rectangle_16315" data-name="Rectangle 16315" class="cls-33" width="15.036" height="14.994" transform="translate(-0.987 -0.987)"/>
      <path id="Path_9914" data-name="Path 9914" class="cls-19" d="M311.66,361.78s.58,3.307,1.477,3.452a1.264,1.264,0,0,1-.124-.476.877.877,0,0,0,1.029.594h.214l-.248-1.816Z" transform="translate(-308.284 -355.698)"/>
      <path id="Path_9915" data-name="Path 9915" class="cls-19" d="M319.248,363s-.262,2.485-1.167,2.6c0,0,.166-.359.131-.476a.877.877,0,0,1-1.029.594h-.214l.249-1.816Z" transform="translate(-309.928 -356.076)"/>
      <path id="Path_9916" data-name="Path 9916" class="cls-66" d="M314.982,357.2h-.318a2.416,2.416,0,0,0-2.4,2.4v1.533a2.347,2.347,0,0,0,1.539,2.271l-.035.932-1.767.318,2.92,3.887,3.065-4-1.836-.318-.124-.884a2.333,2.333,0,0,0,1.381-2.2v-1.533A2.416,2.416,0,0,0,314.982,357.2Z" transform="translate(-308.389 -354.28)"/>
      <path id="Path_9917" data-name="Path 9917" class="cls-67" d="M318.455,360.829a.331.331,0,0,0-.331.338v.387a2.81,2.81,0,0,0-1.022-.656s-.476.1-.642.159h-.09a.373.373,0,0,0-.255.38l.048.953c0,.186-.1.214-.255.214a.166.166,0,0,0-.166.2l.11.587-.145.166a1.118,1.118,0,0,0-.235,1.077h0a2.761,2.761,0,0,1-.863-.138v.428a2.6,2.6,0,0,0,1.7,1.8,4.2,4.2,0,0,0,.69-1.415l-.124-.884a2.34,2.34,0,0,0,1.381-2.147h0a.587.587,0,0,0,.58-.58v-.559a.338.338,0,0,0-.38-.311Z" transform="translate(-309.198 -355.403)"/>
      <circle id="Ellipse_2573" data-name="Ellipse 2573" class="cls-32" cx="0.249" cy="0.249" r="0.249" transform="translate(4.625 5.916)"/>
      <circle id="Ellipse_2574" data-name="Ellipse 2574" class="cls-32" cx="0.249" cy="0.249" r="0.249" transform="translate(7.684 5.916)"/>
      <path id="Path_9918" data-name="Path 9918" class="cls-19" d="M312.95,361.308a.1.1,0,0,1-.076,0,.124.124,0,0,1,0-.173,1.056,1.056,0,0,1,1.381-.159.121.121,0,0,1-.124.207.822.822,0,0,0-1.063.111A.111.111,0,0,1,312.95,361.308Z" transform="translate(-308.649 -355.391)"/>
      <path id="Path_9919" data-name="Path 9919" class="cls-19" d="M318.5,361.3a.111.111,0,0,1-.09-.041.821.821,0,0,0-1.063-.11.121.121,0,0,1-.124-.207,1.056,1.056,0,0,1,1.381.159.124.124,0,0,1,0,.173A.1.1,0,0,1,318.5,361.3Z" transform="translate(-309.989 -355.379)"/>
      <path id="Path_9920" data-name="Path 9920" class="cls-19" d="M311.07,367.851h-.048a2.644,2.644,0,0,0-1.74,1.864l-.532,2.112h10.4l-.538-2.278a2.623,2.623,0,0,0-1.56-1.829h0l-.248.228a4.142,4.142,0,0,1-5.523.062Z" transform="translate(-307.383 -357.537)"/>
      <path id="Path_9921" data-name="Path 9921" class="cls-68" d="M310.217,370.941a3.693,3.693,0,0,0-.3,1.174H318.6a6.143,6.143,0,0,0-.111-.891,4.964,4.964,0,0,0-1.864-2.568,4.142,4.142,0,0,1-4.632-.076A4.64,4.64,0,0,0,310.217,370.941Z" transform="translate(-307.745 -357.804)"/>
      <path id="Path_9922" data-name="Path 9922" class="cls-20" d="M314.82,364.14a.9.9,0,0,0,1.726,0Z" transform="translate(-309.263 -356.429)"/>
      <path id="Path_9923" data-name="Path 9923" class="cls-6" d="M314.82,364.14a1.146,1.146,0,0,0,1.726,0Z" transform="translate(-309.263 -356.429)"/>
      <path id="Path_9924" data-name="Path 9924" class="cls-19" d="M315.512,358.147a5.221,5.221,0,0,0-2.554,1.47,5.814,5.814,0,0,0-.594,2.568,2.844,2.844,0,0,1-.628-2.713,2.761,2.761,0,0,1,2.112-2.112Z" transform="translate(-308.284 -354.329)"/>
      <path id="Path_9925" data-name="Path 9925" class="cls-19" d="M315,358.147a5.22,5.22,0,0,1,2.554,1.47,5.812,5.812,0,0,1,.594,2.568,2.844,2.844,0,0,0,.628-2.713,2.761,2.761,0,0,0-2.112-2.112Z" transform="translate(-309.318 -354.329)"/>
      <path id="Path_9926" data-name="Path 9926" class="cls-69" d="M310,361.68a1.1,1.1,0,0,0,0,.214.973.973,0,0,0,.932,1l-.035-.421A.932.932,0,0,1,310,361.68Z" transform="translate(-307.768 -355.667)"/>
      <path id="Path_9927" data-name="Path 9927" class="cls-19" d="M313.147,360.724s-.207-.407,2.112-.732c.283-.041.953-.2,1.077-.442h-3.2Z" transform="translate(-308.742 -355.007)"/>
      <path id="Path_9928" data-name="Path 9928" class="cls-70" d="M317.734,357.765v-.421a2.982,2.982,0,0,0-5.944,0v.421Z" transform="translate(-308.324 -353.478)"/>
      <path id="Path_9929" data-name="Path 9929" class="cls-71" d="M317.8,359.009s-.193-.842-3.176-.78c-2.982-.062-3.169.78-3.169.78a1.091,1.091,0,0,0-.041.78c0,.09.159.138.159.138a3.4,3.4,0,0,1,1.049-.331,11.77,11.77,0,0,1,4.356.076h0a2.507,2.507,0,0,1,.69.255s.138-.048.159-.138A1.091,1.091,0,0,0,317.8,359.009Z" transform="translate(-308.192 -354.597)"/>
      <path id="Path_9930" data-name="Path 9930" class="cls-72" d="M309.994,361.5a.973.973,0,0,0,.925,1l-.145-2.126a.98.98,0,0,0-.78,1.125Z" transform="translate(-307.764 -355.261)"/>
      <path id="Path_9931" data-name="Path 9931" class="cls-73" d="M311.18,358.4s-.117-4.025,3.41-3.99" transform="translate(-308.135 -353.416)"/>
      <path id="Path_9932" data-name="Path 9932" class="cls-73" d="M319.467,358.4s.11-4.025-3.417-3.99" transform="translate(-309.644 -353.416)"/>
      <rect id="Rectangle_16316" data-name="Rectangle 16316" class="cls-74" width="0.683" height="2.52" rx="0.342" transform="translate(2.814 4.909) rotate(-4.01)"/>
      <path id="Path_9933" data-name="Path 9933" class="cls-75" d="M311.351,362.986a.345.345,0,0,1-.311-.166v.352a.269.269,0,0,0,.29.255h.145a.269.269,0,0,0,.249-.29v-.249a.311.311,0,0,1-.207.1Z" transform="translate(-308.092 -356.02)"/>
      <path id="Path_9934" data-name="Path 9934" class="cls-72" d="M321.835,361.5a.973.973,0,0,1-.925,1l.145-2.126A.98.98,0,0,1,321.835,361.5Z" transform="translate(-311.148 -355.261)"/>
      <path id="Path_9935" data-name="Path 9935" class="cls-69" d="M321.835,361.68a1.114,1.114,0,0,1,0,.214.973.973,0,0,1-.925,1v-.421A.932.932,0,0,0,321.835,361.68Z" transform="translate(-311.148 -355.667)"/>
      <rect id="Rectangle_16317" data-name="Rectangle 16317" class="cls-74" width="0.685" height="2.526" rx="0.343" transform="translate(9.411 6.799) rotate(-175.996)"/>
      <path id="Path_9936" data-name="Path 9936" class="cls-75" d="M320.612,362.986a.345.345,0,0,0,.311-.166v.352a.269.269,0,0,1-.29.255h-.138a.269.269,0,0,1-.255-.29v-.249a.324.324,0,0,0,.207.1Z" transform="translate(-310.941 -356.02)"/>
    </g>
    <circle id="Ellipse_2576" data-name="Ellipse 2576" class="cls-65" cx="6.496" cy="6.496" r="6.496" transform="translate(86.763 189.983)"/>
    <line id="Line_477" data-name="Line 477" class="cls-76" y1="9.285" x2="10.003" transform="translate(223.803 234.047)"/>
    <line id="Line_478" data-name="Line 478" class="cls-76" y1="0.697" x2="11.508" transform="translate(225.84 252.252)"/>
    <line id="Line_479" data-name="Line 479" class="cls-76" x2="9.761" y2="8.201" transform="translate(191.171 234.324)"/>
    <line id="Line_480" data-name="Line 480" class="cls-76" x2="0.442" y2="3.617" transform="translate(210.804 233.833)"/>
    <g id="Group_19897" data-name="Group 19897" class="cls-77" transform="translate(198.585 236.526)">
      <rect id="Rectangle_16318" data-name="Rectangle 16318" class="cls-58" width="31.542" height="31.459" transform="translate(-2.271 -1.967)"/>
      <path id="Path_9937" data-name="Path 9937" class="cls-59" d="M471.334,461.436s-.69-9.582,7.7-9.858c1.933-.062,7.753,0,7.753,0,3.231.193,5.24,2.2,5.965,5.392.276,1.229,1.1,4.467,1.1,4.467Z" transform="translate(-469.539 -430.032)"/>
      <path id="Path_9938" data-name="Path 9938" class="cls-60" d="M496.209,456.462c-.69-3.2-4.094-4.667-7.324-4.832h-6.11c-5.488,2.906-4.646,9.506-4.646,9.506h18.639C496.665,460.107,496.437,457.456,496.209,456.462Z" transform="translate(-471.633 -430.057)"/>
      <path id="Path_9939" data-name="Path 9939" class="cls-30" d="M483.117,446.7l.048.559a3.721,3.721,0,0,1-1.118,2.865h-.1l1.526,1.381a3.1,3.1,0,0,0,2.023.794,5.321,5.321,0,0,0,3.39-1.036l1.139-1.187h0a2.637,2.637,0,0,1-1.022-2.112v-1.2Z" transform="translate(-472.831 -428.53)"/>
      <path id="Path_9940" data-name="Path 9940" class="cls-61" d="M490.1,448.011v-1.2h-4.259l-.366.794c0,1.381,1.615,3.6,3.783,4.225a2.378,2.378,0,0,0,.732-.49l1.139-1.187h0a2.637,2.637,0,0,1-1.029-2.14Z" transform="translate(-473.921 -428.564)"/>
      <path id="Path_9941" data-name="Path 9941" class="cls-61" d="M.759,0h1.5V3.182H.759A.759.759,0,0,1,0,2.423V.759A.759.759,0,0,1,.759,0Z" transform="translate(20.676 14.828) rotate(-179.89)"/>
      <path id="Path_9942" data-name="Path 9942" class="cls-30" d="M485.37,442.659h0a6.137,6.137,0,0,1-6.13-6.158v-2.817c0-3.251,2.644-4.991,5.9-4.984H487.4a4.142,4.142,0,0,1,4.142,4.142V436.5a6.151,6.151,0,0,1-6.172,6.158Z" transform="translate(-471.991 -422.956)"/>
      <g id="Group_19896" data-name="Group 19896" class="cls-78" transform="translate(7.249 5.744)">
        <path id="Path_9943" data-name="Path 9943" class="cls-61" d="M489.738,439.984h-.808v.69h0c.642,1.595,2.016,3.417.649,4.46h0l4.97-.69V436.16h-3.928a.594.594,0,0,0-.587.69l.4,2.285a.69.69,0,0,1-.7.849Z" transform="translate(-482.24 -431.01)"/>
      </g>
      <path id="Path_9945" data-name="Path 9945" class="cls-6" d="M486,443.05a2.133,2.133,0,0,0,4.011,0Z" transform="translate(-474.085 -427.4)"/>
      <circle id="Ellipse_2577" data-name="Ellipse 2577" class="cls-19" cx="0.614" cy="0.614" r="0.614" transform="translate(9.706 11.639)"/>
      <circle id="Ellipse_2578" data-name="Ellipse 2578" class="cls-19" cx="0.614" cy="0.614" r="0.614" transform="translate(16.575 11.653)"/>
      <path id="Path_9946" data-name="Path 9946" class="cls-19" d="M488.347,428.55l2.761,4.218S487.547,433,488.347,428.55Z" transform="translate(-474.775 -422.91)"/>
      <rect id="Rectangle_16319" data-name="Rectangle 16319" class="cls-19" width="3.072" height="0.621" rx="0.21" transform="translate(15.728 10.572) rotate(0.11)"/>
      <rect id="Rectangle_16320" data-name="Rectangle 16320" class="cls-19" width="3.072" height="0.621" rx="0.21" transform="translate(8.818 10.552) rotate(0.11)"/>
      <path id="Path_9947" data-name="Path 9947" class="cls-19" d="M486.463,426.43h-1.491a6.158,6.158,0,0,0-6.172,6.144V436.4h1.712v-2.43c2.527-.166,4.446-1.208,4.874-5.8a8.478,8.478,0,0,0,6.9,3.452C490.715,430.613,491.171,426.43,486.463,426.43Z" transform="translate(-471.855 -422.253)"/>
      <path id="Path_9948" data-name="Path 9948" class="cls-30" d="M.794,0h1.47V3.183H.759A.759.759,0,0,1,0,2.424V.76A.759.759,0,0,1,.794,0Z" transform="translate(5.516 11.621) rotate(0.11)"/>
      <path id="Path_9949" data-name="Path 9949" class="cls-61" d="M486.173,441.95a.935.935,0,0,0-1.263,1.263Z" transform="translate(-473.712 -427.025)"/>
      <rect id="Rectangle_16321" data-name="Rectangle 16321" class="cls-19" width="0.621" height="5.26" transform="translate(19.005 8.878)"/>
    </g>
    <circle id="Ellipse_2580" data-name="Ellipse 2580" class="cls-79" cx="13.627" cy="13.627" r="13.627" transform="translate(198.585 236.519)"/>
  </g>
</svg>
