<svg xmlns="http://www.w3.org/2000/svg" viewBox="0 0 16 15.989">
  <defs>
    <style>
      .cls-1 {
        fill: #1f6eb7;
      }
    </style>
  </defs>
  <path id="Path_9961" data-name="Path 9961" class="cls-1" d="M12.339,16.011A4.484,4.484,0,0,0,15.95,12.4v-.15A.452.452,0,0,1,16,12v-.8a.452.452,0,0,0-.05-.251v-.15a4.484,4.484,0,0,0-3.611-3.611h-.15c-.1,0-.15-.05-.251-.05h-.8a.452.452,0,0,0-.251.05h-.1a4.309,4.309,0,0,0-1.906.8,3.652,3.652,0,0,0-.9-.853h0c-.1-.1-.251-.15-.351-.251a.049.049,0,0,1-.05-.05c-.2-.1-.4-.251-.6-.351a3.536,3.536,0,0,0,.953-4.865,3.494,3.494,0,0,0-4.865-1,3.536,3.536,0,0,0-.953,4.865,3.446,3.446,0,0,0,.953.953h0a3.741,3.741,0,0,0-.6.351.049.049,0,0,0-.05.05,1.008,1.008,0,0,0-.4.2h0A5.012,5.012,0,0,0,0,11.045H1A3.98,3.98,0,0,1,3.31,7.434l.3-.15c.15-.05.351-.1.5-.15.05,0,.1-.05.2-.05.2,0,.451-.05.7-.05s.451.05.7.05c.05,0,.15.05.2.05.15.05.351.1.5.15l.3.15A4.015,4.015,0,0,1,8.176,8.587a4.365,4.365,0,0,0-1.053,2.157v.15c0,.1-.05.15-.05.251v.8a.452.452,0,0,0,.05.251v.15a4.484,4.484,0,0,0,3.611,3.611h.15a.452.452,0,0,1,.251.05h.8a.452.452,0,0,0,.251-.05A.184.184,0,0,0,12.339,16.011ZM5.016,6.029h0A2.515,2.515,0,0,1,2.508,3.522a2.508,2.508,0,1,1,5.016,0A2.483,2.483,0,0,1,5.016,6.029Zm4.966,4.665.853.853L8.727,13.653a3.387,3.387,0,0,1-.05-4.113l.05-.05ZM9.429,8.738h0a3.388,3.388,0,0,1,4.163,0l-2.056,2.107L9.429,8.738Zm2.107,3.511,2.107,2.107a3.388,3.388,0,0,1-4.163,0Zm.7-.7L14.345,9.44a3.388,3.388,0,0,1,0,4.163Z" transform="translate(0 -0.021)"/>
</svg>
